<ttFont>
<head>
    <!-- Most of this table will be recalculated by the compiler -->
    <tableVersion value="1.0"/>
    <fontRevision value="1.0"/>
    <checkSumAdjustment value="0xe7f70b93"/>
    <magicNumber value="0x5f0f3cf5"/>
    <flags value="00000000 00000011"/>
    <unitsPerEm value="2048"/>
    <created value="Tue May 30 14:43:33 2017"/>
    <modified value="Wed May 31 02:54:09 2017"/>
    <xMin value="-532"/>
    <yMin value="-526"/>
    <xMax value="2670"/>
    <yMax value="2128"/>
<macStyle value="00000000 00000011"/>
    <lowestRecPPEM value="3"/>
    <fontDirectionHint value="2"/>
    <indexToLocFormat value="0"/>
    <glyphDataFormat value="0"/>
  </head>
          <CharString index="0">
            -16 rmoveto
            150 90 77 75 37 hvcurveto
            16 hlineto
            -25 -136 rlineto
            298 hlineto
            111 628 rlineto
            6 35 5 38 27 vvcurveto
            231 -168 126 -263 -297 -144 -161 -164 -22 vhcurveto
            299 hlineto
            54 14 50 39 80 hhcurveto
            95 48 -55 -64 -11 -1 -13 -1 -8 hvcurveto
            -13 -74 rlineto
            -243 hlineto
            -253 -178 -107 -217 -7 hvcurveto
            -1 -6 0 -6 -4 vvcurveto
            -194 140 -110 177 vhcurveto
            1 344 rmoveto
            71 57 55 107 vhcurveto
            169 hlineto
            122 callsubr
            -79 -15 -80 -55 -85 hhcurveto
            -79 -54 48 71 hvcurveto
            return
          </CharString>
          <CharString index="1">
            rmoveto
            284 181 161 183 22 hvcurveto
            -298 hlineto
            -68 -16 -65 -39 -89 hhcurveto
            -126 -54 77 94 22 3 36 5 22 hvcurveto
            662 hlineto
            15 65 10 77 14 vvcurveto
            276 12 -180 188 -281 hhcurveto
            -254 -218 -141 -301 -52 hvcurveto
            -16 -91 rlineto
            -8 -43 -6 -50 -48 vvcurveto
            -295 205 -139 264 vhcurveto
            230 664 rmoveto
            -352 hlineto
            9 40 rlineto
            112 27 70 59 95 hhcurveto
            114 51 -80 -99 -11 hvcurveto
            -8 -1 -14 -2 -10 vhcurveto
            return
          </CharString>
          <CharString index="2">
            169 491 801 -107 callgsubr
            return
          </CharString>
          <CharString index="3">
            182 627 -14 callsubr
            -330 hlineto
            -145 -825 rlineto
            -5 -33 -5 -40 -39 vvcurveto
            -302 252 -148 292 304 229 151 285 50 vhcurveto
            166 951 rlineto
            -331 hlineto
            -154 -872 rlineto
            -163 -29 -94 -68 -121 hhcurveto
            -143 -85 84 128 25 3 31 4 20 hvcurveto
            return
          </CharString>
          <CharString index="4">
            hmoveto
            335 hlineto
            144 312 rlineto
            416 hlineto
            33 -312 rlineto
            353 hlineto
            -201 -39 callsubr
            -404 hlineto
            156 -298 rmoveto
            47 -514 rlineto
            -297 hlineto
            232 514 rlineto
            return
          </CharString>
          <CharString index="5">
            268 rmoveto
            -585 hlineto
            54 299 rlineto
            549 hlineto
            42 243 rlineto
            -549 hlineto
            53 286 rlineto
            582 hlineto
            46 269 rlineto
            -911 -98 callgsubr
            913 hlineto
            return
          </CharString>
          <CharString index="6">
            rmoveto
            -199 -176 -131 -299 -62 hvcurveto
            -13 -68 rlineto
            -11 -50 -3 -66 -30 vvcurveto
            -258 147 -151 209 146 102 69 84 38 vhcurveto
            17 hlineto
            -23 -139 rlineto
            -130 -23 -57 -70 -136 hhcurveto
            -97 -72 43 57 -12 hvcurveto
            -2 5 -1 8 -1 5 rrcurveto
            -296 hlineto
            -2 -2 -11 -13 vvcurveto
            -168 150 -156 318 298 196 124 249 44 vhcurveto
            189 1082 90 callsubr
            -35 -197 -7 callsubr
            119 -30 -104 94 -166 hhcurveto
            265 -441 rmoveto
            -15 -2 -41 -7 -36 vhcurveto
            -11 -68 rlineto
            -150 -26 -80 -81 -103 hhcurveto
            -116 -56 86 111 26 5 41 4 20 hvcurveto
            11 65 rlineto
            145 26 76 85 108 hhcurveto
            104 67 -77 -111 hvcurveto
            return
          </CharString>
          <CharString index="7">
            745 rmoveto
            -211 186 -68 126 -39 vhcurveto
            113 -34 81 -22 -71 vvcurveto
            -60 -56 -45 -99 -100 -72 47 74 -6 vhcurveto
            7 -1 11 1 3 vhcurveto
            -283 hlineto
            -1 -8 -1 -16 -11 vvcurveto
            -220 229 -103 227 250 228 114 237 173 -121 82 -157 50 vhcurveto
            -124 39 -118 14 86 vvcurveto
            54 49 47 93 102 56 -57 -53 -3 0 -11 -1 -4 vhcurveto
            275 hlineto
            1 6 1 20 9 vvcurveto
            177 -178 129 -262 -290 -148 -147 -196 vhcurveto
            return
          </CharString>
          <CharString index="8">
            rmoveto
            -88 63 -51 82 82 63 51 88 86 -62 53 -83 -82 -63 -52 -87 vhcurveto
            return
          </CharString>
          <CharString index="9">
            -50 1034 -102 callsubr
            return
          </CharString>
          <CharString index="10">
            151 166 851 rmoveto
            -32 -176 rlineto
            -8 -43 -7 -66 -47 vvcurveto
            -374 254 -169 314 333 209 182 275 49 vhcurveto
            52 296 rlineto
            -552 hlineto
            -38 -218 rlineto
            247 hlineto
            -18 -91 rlineto
            -100 -20 -104 -75 -140 hhcurveto
            -146 -108 101 179 36 6 53 6 36 hvcurveto
            29 151 rlineto
            206 38 104 113 157 hhcurveto
            171 58 -116 -68 3 hvcurveto
            1 -10 0 -11 -1 -7 rrcurveto
            317 hlineto
            2 7 1 27 6 vvcurveto
            205 -162 236 -390 -354 -212 -212 -326 -59 vhcurveto
            return
          </CharString>
          <CharString index="11">
            -99 callsubr
            endchar
          </CharString>
          <CharString index="12">
            315 -14 callsubr
            29 callgsubr
            506 hlineto
            404 262 216 343 74 hvcurveto
            7 26 15 83 2 27 rrcurveto
            6 43 2 49 36 vvcurveto
            319 -189 223 -342 vhcurveto
            -223 -269 rmoveto
            114 hlineto
            169 133 -78 -209 -23 -2 -43 -4 -30 hvcurveto
            -2 -26 -14 -74 -6 -21 rrcurveto
            -229 -52 -172 -95 -211 hhcurveto
            -101 hlineto
            return
          </CharString>
          <CharString index="13">
            rmoveto
            130 101 121 callgsubr
            10 hvcurveto
            -161 hlineto
            -59 -6 -26 -35 -42 -77 -24 130 -146 hhcurveto
            -143 -84 -125 -147 -10 hvcurveto
            161 hlineto
            58 6 27 36 42 74 27 -129 141 hhcurveto
            return
          </CharString>
          <CharString index="14">
            554 1080 -94 callgsubr
            return
          </CharString>
          <CharString index="15">
            56 -91 callgsubr
            return
          </CharString>
          <CharString index="16">
            240 1365 -90 callsubr
            return
          </CharString>
          <CharString index="17">
            rlineto
            -328 -98 callgsubr
            return
          </CharString>
          <CharString index="18">
            -20 rmoveto
            248 182 152 192 22 hvcurveto
            -298 hlineto
            -63 -16 -60 -44 -94 hhcurveto
            -121 -54 76 99 15 1 15 8 46 hvcurveto
            657 hlineto
            10 44 14 85 28 vvcurveto
            251 12 -149 212 -291 hhcurveto
            -139 -125 -52 -86 -72 hvcurveto
            -15 hlineto
            89 -64 -105 49 -150 hhcurveto
            -242 -185 -140 -188 -21 hvcurveto
            299 hlineto
            54 14 49 40 81 hhcurveto
            98 45 -59 -60 -10 120 callgsubr
            -76 rlineto
            -239 hlineto
            -280 -162 -120 -209 -197 146 -122 234 185 131 82 118 77 hvcurveto
            14 hlineto
            -128 62 137 -72 172 hhcurveto
            -840 345 rmoveto
            73 56 57 108 vhcurveto
            169 hlineto
            -17 -89 rlineto
            -96 -17 -72 -59 -94 hhcurveto
            -84 -49 47 67 hvcurveto
            1048 319 rmoveto
            -360 hlineto
            1 1 2 20 5 20 rrcurveto
            110 20 82 60 95 hhcurveto
            109 60 -78 -101 -11 hvcurveto
            -8 -1 -15 -2 -9 vhcurveto
            return
          </CharString>
          <CharString index="19">
            rmoveto
            239 154 165 276 46 hvcurveto
            20 104 rlineto
            8 49 4 55 47 vvcurveto
            245 -137 151 -209 -155 -102 -90 -118 -45 vhcurveto
            -18 hlineto
            36 196 rlineto
            -322 hlineto
            -250 -1423 -27 callgsubr
            98 552 rlineto
            14 hlineto
            -115 23 108 -94 167 hhcurveto
            -264 453 rmoveto
            14 2 29 4 23 vhcurveto
            16 88 rlineto
            143 24 76 90 112 hhcurveto
            103 66 -70 -114 -28 -2 -42 -4 -19 hvcurveto
            -16 -89 rlineto
            -136 -25 -73 -89 -112 hhcurveto
            -90 -81 70 130 hvcurveto
            return
          </CharString>
          <CharString index="20">
            rmoveto
            -267 181 -162 285 243 208 117 247 31 vhcurveto
            -298 hlineto
            -65 -15 -54 -43 -93 hhcurveto
            -125 -49 79 117 23 1 32 6 37 hvcurveto
            19 103 121 callsubr
            79 70 98 hhcurveto
            106 52 -78 -70 -3 0 -8 -2 -5 hvcurveto
            298 hlineto
            3 9 1 13 17 vvcurveto
            244 -208 133 -247 -245 -213 -130 -297 -54 vhcurveto
            122 callsubr
            -8 -48 -5 -52 -41 vvcurveto
            return
          </CharString>
          <CharString index="21">
            474 1087 -16 rmoveto
            298 177 179 249 51 hvcurveto
            15 73 rlineto
            9 48 3 51 38 vvcurveto
            308 -214 158 -278 -258 -182 -146 -219 -65 vhcurveto
            -3 -12 -8 -33 -3 -12 rrcurveto
            -126 hlineto
            71 402 rlineto
            -321 hlineto
            -188 -1068 -56 callgsubr
            return
          </CharString>
          <CharString index="22">
            100 557 rlineto
            503 hlineto
            -100 -557 54 callgsubr
            -330 hlineto
            -93 -537 rlineto
            -503 hlineto
            93 537 -90 callsubr
            return
          </CharString>
          <CharString index="23">
            384 685 -22 rmoveto
            304 229 151 285 50 hvcurveto
            127 724 rlineto
            59 hlineto
            176 119 130 163 28 hvcurveto
            31 181 rlineto
            -246 hlineto
            -24 -138 rlineto
            -71 -13 -31 -38 -76 hhcurveto
            -315 hlineto
            -155 -872 rlineto
            -163 -29 -93 -68 -121 hhcurveto
            -143 -86 84 128 25 3 31 4 20 hvcurveto
            143 815 rlineto
            -331 hlineto
            -144 -825 rlineto
            -5 -33 -5 -40 -39 vvcurveto
            -302 252 -148 292 vhcurveto
            return
          </CharString>
          <CharString index="24">
            rmoveto
            -153 66 callgsubr
            151 hlineto
            -88 -493 rlineto
            -6 -34 -4 42 callgsubr
            117 -72 224 74 64 8 7 28 vhcurveto
            40 229 rlineto
            -4 -19 -38 -4 -37 hhcurveto
            -82 -40 26 72 12 1 125 callgsubr
            73 414 rlineto
            215 69 callgsubr
            -220 hlineto
            46 264 rlineto
            -307 hlineto
            return
          </CharString>
          <CharString index="25">
            rmoveto
            -247 hlineto
            -142 -122 rlineto
            -19 hlineto
            -106 122 rlineto
            -239 hlineto
            222 -246 rlineto
            247 hlineto
            return
          </CharString>
          <CharString index="26">
            rmoveto
            614 886 rlineto
            -354 hlineto
            -366 -571 -7 callsubr
            -164 571 rlineto
            -352 hlineto
            306 -895 -84 -470 94 callgsubr
            return
          </CharString>
          <CharString index="27">
            32 56 -78 callgsubr
            return
          </CharString>
          <CharString index="28">
            rmoveto
            28 154 rlineto
            -648 hlineto
            -28 -154 rlineto
            endchar
          </CharString>
          <CharString index="29">
            rmoveto
            -51 -41 38 50 51 42 38 50 50 42 -38 -51 -50 -41 -38 -51 hvcurveto
            -4 -136 rmoveto
            124 107 94 131 123 -95 100 -129 -124 -107 -93 -132 -123 94 -100 115 callsubr
          </CharString>
          <CharString index="30">
            rmoveto
            -3 -18 -4 -27 -20 vvcurveto
            -157 132 -95 158 193 149 112 205 30 vhcurveto
            -175 hlineto
            -99 -20 -71 -53 -81 hhcurveto
            -98 -38 66 74 5 1 3 1 4 hvcurveto
            return
          </CharString>
          <CharString index="31">
            rmoveto
            146 hlineto
            136 63 -70 -88 -107 -82 -72 -126 -131 -82 75 92 5 0 6 1 7 hvcurveto
            -306 hlineto
            -3 -16 -1 -18 -19 vvcurveto
            -275 254 -124 262 299 251 148 286 150 -104 107 -152 30 vhcurveto
            2 15 rlineto
            176 17 129 122 181 vvcurveto
            248 -231 111 -250 -297 -183 -158 -256 -45 vhcurveto
            312 hlineto
            81 20 57 77 125 hhcurveto
            99 80 -49 -91 -99 -76 -67 -137 hvcurveto
            -164 hlineto
            return
          </CharString>
          <CharString index="32">
            75 callsubr
            -270 -779 -7 callsubr
            -38 779 rlineto
            -298 hlineto
            -293 -779 -7 callsubr
            -11 779 rlineto
            -315 hlineto
            100 -1068 rlineto
            342 hlineto
            281 729 rlineto
            12 hlineto
            45 -729 rlineto
            340 hlineto
            return
          </CharString>
          <CharString index="33">
            74 417 rlineto
            225 hlineto
            337 185 176 246 45 hvcurveto
            7 38 4 39 37 vvcurveto
            252 -164 160 -282 vhcurveto
            -519 -98 callgsubr
            680 1119 rmoveto
            110 87 -57 -126 -21 -4 -25 -5 -20 hvcurveto
            -106 -21 -80 -82 -155 hhcurveto
            -162 hlineto
            78 437 rlineto
            return
          </CharString>
          <CharString index="34">
            hvcurveto
            -101 15 callsubr
            100 562 -50 callsubr
            return
          </CharString>
          <CharString index="35">
            rmoveto
            228 hlineto
            164 197 rlineto
            16 hlineto
            86 -197 rlineto
            233 hlineto
            -181 343 79 callgsubr
            return
          </CharString>
          <CharString index="36">
            -32 callsubr
            endchar
          </CharString>
          <CharString index="37">
            rmoveto
            -80 63 -63 79 79 63 63 80 80 -63 64 -79 -79 -63 -64 -80 vhcurveto
            endchar
          </CharString>
          <CharString index="38">
            hmoveto
            382 855 rlineto
            14 hlineto
            83 -855 129 callsubr
            579 -39 callsubr
            -343 hlineto
            -339 -937 rlineto
            -16 hlineto
            -68 937 rlineto
            -262 hlineto
            -390 -937 rlineto
            -17 hlineto
            -9 937 rlineto
            -341 hlineto
            98 83 callgsubr
            return
          </CharString>
          <CharString index="39">
            hmoveto
            -85 callsubr
            return
          </CharString>
          <CharString index="40">
            22 -93 callsubr
            return
          </CharString>
          <CharString index="41">
            hmoveto
            150 859 rlineto
            17 hlineto
            160 -684 rlineto
            181 hlineto
            414 684 rlineto
            16 hlineto
            -153 -859 rlineto
            294 -29 callgsubr
            -367 hlineto
            -465 -775 rlineto
            -12 hlineto
            -189 775 rlineto
            -344 -98 callgsubr
            return
          </CharString>
          <CharString index="42">
            873 hlineto
            43 240 rlineto
            -468 hlineto
            2 15 563 605 36 208 rlineto
            -861 hlineto
            -44 -237 rlineto
            479 hlineto
            -3 -15 -588 -630 rlineto
            return
          </CharString>
          <CharString index="43">
            413 1099 hmoveto
            319 hlineto
            189 1068 90 callsubr
            -692 -555 rmoveto
            91 51 -44 -73 -6 0 -6 -2 -6 hvcurveto
            -82 -9 -66 -63 -111 hhcurveto
            -130 hlineto
            50 280 rlineto
            -405 -513 rmoveto
            505 hlineto
            284 168 149 206 28 hvcurveto
            4 21 2 21 21 vvcurveto
            200 -141 128 -262 vhcurveto
            -136 hlineto
            57 322 rlineto
            -321 hlineto
            return
          </CharString>
          <CharString index="44">
            99 callsubr
            105 606 rlineto
            142 25 62 87 111 hhcurveto
            89 41 -68 -85 -32 -4 81 callgsubr
            308 hlineto
            106 607 rlineto
            143 26 62 85 98 hhcurveto
            89 44 -64 -90 -31 -5 81 callgsubr
            321 hlineto
            99 565 rlineto
            15 83 9 65 53 vvcurveto
            186 -114 132 -202 -157 -105 -82 -112 -57 vhcurveto
            -14 hlineto
            120 -37 -101 74 -141 hhcurveto
            -144 -105 -77 -114 -50 hvcurveto
            -17 hlineto
            31 175 rlineto
            -310 hlineto
            return
          </CharString>
          <CharString index="45">
            rmoveto
            9 23 26 6 40 hhcurveto
            50 44 -32 -32 -43 -28 -28 -75 -38 hvcurveto
            70 -101 rlineto
            124 48 77 86 107 vvcurveto
            94 -88 71 -123 -61 -34 -6 -10 -26 vhcurveto
            endchar
          </CharString>
          <CharString index="46">
            75 callgsubr
            -160 -908 rlineto
            -106 -19 -49 -79 -109 hhcurveto
            -101 -54 68 87 13 1 12 2 17 hvcurveto
            -310 -1 rlineto
            -5 -17 -4 -30 -38 vvcurveto
            -261 209 -146 261 261 190 147 289 50 vhcurveto
            return
          </CharString>
          <CharString index="47" raw="1">
            15f851f7 dc60ebfc 51fbdc05 f721f75d
            15f714a5 bac8d51b c6b05f47 68886a85
            6e1f6efb 2905fb16 735d5040 1b4f67b9
            d5a88eab 92ad1ffb 8ac11583 5f897361
            1afb67f7 1bfb1cf7 66f770f7 21f719f7
            8db51e99 e40591a5 8fb0b31a f76bfb1a
            f71bfb67 fb70fb21 fb1afb8b 621e0e
          </CharString>
          <CharString index="48">
            rmoveto
            106 94 206 -454 122 callgsubr
            -296 611 472 457 rlineto
            -371 hlineto
            -379 -395 rlineto
            -19 hlineto
            136 764 rlineto
            -311 hlineto
            -253 -1437 rlineto
            311 hlineto
            return
          </CharString>
          <CharString index="49">
            1030 hlineto
            46 264 rlineto
            -628 hlineto
            1 17 757 864 37 220 rlineto
            -1002 hlineto
            -45 -264 rlineto
            600 hlineto
            -1 -18 -758 -866 rlineto
            return
          </CharString>
          <CharString index="50">
            -91 callsubr
            endchar
          </CharString>
          <CharString index="51">
            403 -47 callsubr
            return
          </CharString>
          <CharString index="52">
            rmoveto
            237 hlineto
            145 133 rlineto
            17 hlineto
            100 -133 rlineto
            229 hlineto
            -211 262 rlineto
            -229 hlineto
            279 70 rmoveto
            120 97 104 138 10 hvcurveto
            -156 hlineto
            -64 -7 -25 -37 -39 -70 -20 123 -148 hhcurveto
            -118 -93 -98 -136 -11 hvcurveto
            156 hlineto
            55 7 27 31 41 78 11 -116 140 hhcurveto
            endchar
          </CharString>
          <CharString index="53">
            rmoveto
            3 17 4 27 20 vvcurveto
            158 -132 94 -156 -194 -150 -112 -204 -31 vhcurveto
            175 hlineto
            99 21 70 52 82 hhcurveto
            97 38 -65 -74 -6 0 -3 -1 -3 hvcurveto
            endchar
          </CharString>
          <CharString index="54">
            19 callsubr
            235 264 rmoveto
            -6 -132 rlineto
            7 26 25 2 28 hhcurveto
            72 28 -28 -43 -36 -25 -30 -42 -19 hvcurveto
            63 -114 rlineto
            114 42 62 85 98 vvcurveto
            123 -98 56 -145 -37 -42 -5 -6 -23 vhcurveto
            endchar
          </CharString>
          <CharString index="55">
            rmoveto
            1 16 rlineto
            48 4 37 33 48 hhcurveto
            45 32 -31 -46 -47 -32 -43 -81 -60 hvcurveto
            -353 -260 -34 -209 rlineto
            682 hlineto
            40 212 rlineto
            -340 hlineto
            3 12 170 118 rlineto
            145 94 71 100 110 vvcurveto
            157 -130 101 -205 -199 -139 -106 -159 -10 vhcurveto
            -3 -40 rlineto
            endchar
          </CharString>
          <CharString index="56">
            rlineto
            226 69 callgsubr
            -234 hlineto
            10 61 rlineto
            80 15 53 39 95 hhcurveto
            33 46 -3 -4 20 hvcurveto
            38 217 rlineto
            7 -44 -68 5 -55 hhcurveto
            -275 -127 -93 -223 -35 hvcurveto
            -14 -86 rlineto
            -169 66 callgsubr
            169 hlineto
            return
          </CharString>
          <CharString index="57">
            rlineto
            14 82 9 65 53 vvcurveto
            185 -119 137 -206 -140 -106 -65 -112 -55 vhcurveto
            -17 hlineto
            return
          </CharString>
          <CharString index="58">
            320 rlineto
            -263 hlineto
            227 -320 rlineto
            return
          </CharString>
          <CharString index="59">
            rmoveto
            2 15 4 24 16 vvcurveto
            161 -141 96 -158 -203 -150 -113 -199 -30 vhcurveto
            177 hlineto
            92 20 74 54 86 hhcurveto
            106 37 -69 -76 hvcurveto
            -1 vlineto
            return
          </CharString>
          <CharString index="60">
            hmoveto
            -91 callsubr
            return
          </CharString>
          <CharString index="61">
            rmoveto
            -203 150 -135 223 218 158 140 195 163 -100 114 -145 -44 -31 -8 -19 -27 vhcurveto
            -17 hlineto
            6 12 23 29 19 20 36 40 142 130 103 87 rrcurveto
            -364 hlineto
            -53 -46 -75 -73 -34 -38 rrcurveto
            -129 -147 -59 -128 -133 vvcurveto
            375 110 rmoveto
            68 50 -50 -66 -66 -50 -50 -68 -66 -51 50 66 66 51 50 66 hvcurveto
            endchar
          </CharString>
          <CharString index="62">
            609 560 rmoveto
            -88 -52 42 77 84 63 75 124 hvcurveto
            139 hlineto
            -50 -278 rlineto
            -98 -560 74 callgsubr
            -517 hlineto
            -321 -162 -189 -207 -118 64 -106 103 -42 hvcurveto
            -339 -406 rlineto
            349 hlineto
            283 346 rlineto
            0 92 vlineto
            return
          </CharString>
          <CharString index="63">
            rmoveto
            30 78 callsubr
            -30 -155 rlineto
            80 -387 rmoveto
            86 98 callsubr
            -55 65 callgsubr
            55 -53 83 hvcurveto
            424 hmoveto
            85 callgsubr
            -78 54 -53 84 hvcurveto
            endchar
          </CharString>
          <CharString index="64">
            73 callsubr
            -97 -549 rlineto
            -18 -28 -96 -43 -119 hhcurveto
            -162 -65 78 160 29 hvcurveto
            66 372 110 callgsubr
            -64 -360 rlineto
            -341 -60 162 -181 312 hhcurveto
            130 119 42 22 45 hvcurveto
            14 hlineto
            -97 -547 rlineto
            return
          </CharString>
          <CharString index="65">
            rmoveto
            9 hlineto
            -87 26 100 -67 125 hhcurveto
            180 168 120 265 46 hvcurveto
            8 48 rlineto
            7 37 1 60 42 vvcurveto
            356 -294 277 -452 -419 -324 -259 -440 -76 vhcurveto
            -9 -48 rlineto
            -8 -47 -8 -66 -55 vvcurveto
            -466 333 -229 434 68 60 8 9 32 vhcurveto
            28 164 rlineto
            -8 -32 -64 -6 -66 hhcurveto
            -320 -278 150 391 46 6 56 7 38 hvcurveto
            7 36 rlineto
            346 62 244 209 322 hhcurveto
            324 234 -183 -293 -32 -2 -54 -4 -27 hvcurveto
            -4 -26 rlineto
            -187 -28 -74 -72 -83 hhcurveto
            -48 -36 29 47 15 3 20 2 8 hvcurveto
            81 465 rlineto
            -208 hlineto
            -24 -135 rlineto
            -8 hlineto
            81 -9 -78 87 -129 hhcurveto
            -164 -118 -113 -194 -35 hvcurveto
            -16 -90 rlineto
            -5 -30 -3 -35 -27 vvcurveto
            -167 109 -114 159 129 78 65 82 34 vhcurveto
            -275 222 rmoveto
            10 52 rlineto
            112 22 54 54 69 hhcurveto
            79 42 -58 -68 -15 -2 -16 -3 -17 hvcurveto
            -14 -84 rlineto
            -113 -20 -56 -42 -63 hhcurveto
            -85 -39 58 72 19 2 22 4 24 hvcurveto
            endchar
          </CharString>
          <CharString index="66">
            1365 return
          </CharString>
          <CharString index="67">
            rmoveto
            -407 -79 -57 -152 -128 hhcurveto
            -20 -20 5 4 -9 hvcurveto
            -49 -283 rlineto
            -9 16 39 -9 55 hhcurveto
            338 99 295 503 102 hvcurveto
            63 315 rlineto
            344 hlineto
            -193 -1095 54 callgsubr
            -969 hlineto
            endchar
          </CharString>
          <CharString index="68">
            -41 callsubr
            rlineto
            return
          </CharString>
          <CharString index="69">
            309 hlineto
            77 438 rlineto
            56 hlineto
            208 -438 rlineto
            338 hlineto
            -284 543 449 525 rlineto
            -358 hlineto
            -319 -409 rlineto
            -52 hlineto
            73 409 rlineto
            -309 hlineto
            -73 -409 rlineto
            -49 hlineto
            -177 409 rlineto
            -326 hlineto
            234 -476 -470 -592 rlineto
            350 hlineto
            347 438 rlineto
            53 hlineto
            return
          </CharString>
          <CharString index="70">
            1077 rmoveto
            33 hlineto
            -97 -529 -278 -1 rlineto
            182 -547 rmoveto
            904 hlineto
            46 264 rlineto
            -588 hlineto
            55 304 rlineto
            551 hlineto
            42 242 rlineto
            -551 hlineto
            53 292 rlineto
            586 hlineto
            46 263 rlineto
            -1149 hlineto
            -893 83 callgsubr
            370 hlineto
            200 296 rlineto
            380 hlineto
            return
          </CharString>
          <CharString index="71">
            rmoveto
            230 hlineto
            135 106 rlineto
            7 hlineto
            91 -106 rlineto
            226 hlineto
            -199 193 rlineto
            -212 hlineto
            229 39 rmoveto
            109 75 89 115 3 hvcurveto
            -136 hlineto
            -55 -2 -17 -23 -41 -58 -30 87 -121 hhcurveto
            -105 -67 -89 -99 -4 hvcurveto
            135 hlineto
            26 3 12 35 42 55 26 -86 121 hhcurveto
            endchar
          </CharString>
          <CharString index="72">
            193 1092 rlineto
            365 hlineto
            47 273 rlineto
            -1059 hlineto
            -47 -273 rlineto
            366 hlineto
            -195 -1092 rlineto
            return
          </CharString>
          <CharString index="73">
            321 60 callsubr
            -321 hlineto
            -72 -402 rlineto
            -345 8 callsubr
            346 hlineto
            endchar
          </CharString>
          <CharString index="74">
            rmoveto
            -210 352 rlineto
            -266 hlineto
            263 -352 rlineto
            endchar
          </CharString>
          <CharString index="75">
            14 callgsubr
            -28 -26 -34 callgsubr
            -113 1376 rmoveto
            -95 73 -61 111 120 80 67 99 95 -73 61 -112 -118 -81 -67 -99 vhcurveto
            return
          </CharString>
          <CharString index="76">
            rmoveto
            110 325 rlineto
            -229 hlineto
            -84 -325 rlineto
            endchar
          </CharString>
          <CharString index="77">
            rmoveto
            130 81 106 127 3 hvcurveto
            -155 hlineto
            -52 -2 -21 -45 -43 -67 -22 112 -147 hhcurveto
            -140 -65 -115 -112 -4 hvcurveto
            155 hlineto
            50 5 22 33 43 76 13 120 callsubr
          </CharString>
          <CharString index="78">
            995 277 rmoveto
            -544 hlineto
            192 1088 -90 callsubr
            873 hlineto
            return
          </CharString>
          <CharString index="79">
            -73 788 644 rmoveto
            -352 hlineto
            9 40 rlineto
            112 27 70 59 95 hhcurveto
            114 51 -80 -99 -11 hvcurveto
            -8 -1 -14 -2 -10 vhcurveto
            -342 -1125 rmoveto
            157 106 63 132 15 hvcurveto
            2 10 1 101 callsubr
            22 89 rlineto
            0 vlineto
            264 13 169 157 21 175 rrcurveto
            -298 hlineto
            -68 -16 -65 -39 -89 hhcurveto
            -126 -54 77 94 22 3 36 5 22 hvcurveto
            662 hlineto
            15 65 10 77 14 vvcurveto
            276 11 -179 188 -281 hhcurveto
            -254 -218 -141 -301 -52 hvcurveto
            -16 -91 rlineto
            -8 -43 -6 -50 -48 vvcurveto
            -240 135 -138 192 -43 vhcurveto
            -36 -154 105 callgsubr
            79 34 -14 -36 hvcurveto
            -2 0 -4 -2 vvcurveto
            104 callgsubr
            -33 64 callsubr
            23 94 callsubr
            return
          </CharString>
          <CharString index="80">
            167 130 664 rmoveto
            -10 -53 -1 -61 -51 vvcurveto
            -96 20 -85 37 -71 vhcurveto
            -141 -138 115 -117 128 126 rlineto
            -92 97 141 -50 163 hhcurveto
            354 215 197 336 63 hvcurveto
            36 98 callgsubr
            1 55 44 vvcurveto
            96 -20 86 -37 73 vhcurveto
            139 135 -120 110 -118 -116 rlineto
            96 -99 -143 52 -170 hhcurveto
            -333 -232 -193 -339 -60 hvcurveto
            855 -84 rmoveto
            -6 -7 -65 -3 -14 vhcurveto
            -20 -112 rlineto
            -222 -40 -103 -101 -145 hhcurveto
            -90 -68 33 57 -42 hvcurveto
            518 486 rlineto
            2 -10 -2 -35 -11 vvcurveto
            -40 247 rmoveto
            -525 -493 rlineto
            -2 11 -1 11 13 vvcurveto
            34 4 28 6 30 vhcurveto
            27 147 rlineto
            225 42 108 92 137 hhcurveto
            94 69 -36 -62 41 hvcurveto
            return
          </CharString>
          <CharString index="81">
            -24 callsubr
            endchar
          </CharString>
          <CharString index="82">
            10 callsubr
            616 hmoveto
            10 callsubr
            endchar
          </CharString>
          <CharString index="83">
            22 callgsubr
            -321 hlineto
            -75 -425 rlineto
            -16 -14 -68 -39 -91 hhcurveto
            -101 -44 58 102 18 hvcurveto
            56 320 90 callsubr
            -53 -300 rlineto
            -263 -46 113 -164 240 hhcurveto
            111 98 36 31 43 hvcurveto
            16 hlineto
            -72 -408 rlineto
            return
          </CharString>
          <CharString index="84">
            19 callsubr
            370 -126 rmoveto
            198 hlineto
            354 330 rlineto
            -250 hlineto
            endchar
          </CharString>
          <CharString index="85">
            -524 243 1068 rmoveto
            -133 -751 rlineto
            -6 -34 -4 42 callgsubr
            117 -72 224 74 64 8 7 28 vhcurveto
            40 229 rlineto
            -4 -19 -38 -4 -37 hhcurveto
            -82 -40 26 72 17 4 30 9 48 hvcurveto
            114 646 rlineto
            return
          </CharString>
          <CharString index="86">
            -19 101 574 rmoveto
            -7 -39 -3 -43 -56 vvcurveto
            -91 19 -78 38 -66 vhcurveto
            -141 -125 90 -105 139 123 rlineto
            -74 88 120 -40 140 hhcurveto
            285 195 164 263 53 hvcurveto
            18 92 rlineto
            8 37 2 39 54 vvcurveto
            83 -18 75 -33 65 vhcurveto
            144 129 -101 106 -134 -120 rlineto
            78 -87 -125 43 -146 hhcurveto
            -272 -206 -163 -263 -50 hvcurveto
            324 -48 rmoveto
            153 24 76 76 105 hhcurveto
            68 51 -31 -54 29 hvcurveto
            -374 -327 rlineto
            -1 8 -1 8 9 vvcurveto
            22 4 18 3 19 vhcurveto
            23 -210 rmoveto
            366 319 rlineto
            1 -5 0 -5 -5 vvcurveto
            -4 -1 -30 -2 -11 vhcurveto
            -16 -102 rlineto
            -149 -24 -73 -84 -108 hhcurveto
            -64 -50 27 49 -29 hvcurveto
            return
          </CharString>
          <CharString index="87">
            30 callsubr
            -151 -316 rmoveto
            -22 callgsubr
            -390 hmoveto
            -22 callgsubr
            endchar
          </CharString>
          <CharString index="88">
            106 callgsubr
            -2 0 -4 -1 -2 hvcurveto
            104 callgsubr
            -32 -56 6 9 -30 hvcurveto
            -23 -133 103 callgsubr
            return
          </CharString>
          <CharString index="89">
            -20 748 -391 rmoveto
            72 -1 67 17 20 5 31 177 rcurveline
            -5 -18 -35 -4 -22 hhcurveto
            -67 -46 31 69 10 hvcurveto
            11 80 73 46 84 74 105 95 63 105 23 114 18 87 rcurveline
            8 41 2 51 25 vvcurveto
            320 -218 152 -277 -293 -193 -176 -250 -47 vhcurveto
            -16 -88 rlineto
            -9 -47 -2 -47 -32 vvcurveto
            -295 187 -167 236 47 47 8 16 36 vhcurveto
            -1 -17 -63 -44 -43 -57 -10 -68 rlinecurve
            -18 -121 76 -91 162 -3 rrcurveto
            -305 1005 rmoveto
            137 22 68 92 114 hhcurveto
            114 127 callgsubr
            -102 rlineto
            -136 -21 -66 -97 -117 hhcurveto
            -116 -59 87 107 31 4 34 5 27 hvcurveto
            return
          </CharString>
          <CharString index="90">
            362 1055 -16 rmoveto
            240 140 158 318 57 hvcurveto
            11 59 7 69 70 vvcurveto
            154 -40 151 -57 105 vhcurveto
            -299 hlineto
            66 -157 23 -127 -123 vvcurveto
            -55 -3 -56 -12 -72 vhcurveto
            -174 -26 -54 -69 -81 hhcurveto
            -63 -35 37 77 18 1 17 4 21 hvcurveto
            61 362 rlineto
            -286 hlineto
            -63 -369 rlineto
            -117 -20 -50 -46 -60 hhcurveto
            -77 -36 34 105 17 3 41 7 44 hvcurveto
            34 226 94 194 145 172 rrcurveto
            -336 hlineto
            -116 -131 -78 -172 -33 -190 rrcurveto
            -18 -95 -5 -58 -47 vvcurveto
            -239 114 -152 229 152 89 66 160 76 vhcurveto
            13 hlineto
            -142 15 102 -84 165 hhcurveto
            return
          </CharString>
          <CharString index="91">
            rmoveto
            53 31 -48 -81 -114 -46 -75 -68 -52 -31 48 82 109 47 79 66 hvcurveto
            -333 -201 rmoveto
            -191 120 -130 174 206 137 162 244 188 -123 133 -172 -204 -138 -164 -242 vhcurveto
            -507 906 rmoveto
            52 31 -48 -81 -114 -45 -76 -68 -52 -31 49 82 109 47 79 66 hvcurveto
            -333 -202 rmoveto
            -190 120 -131 174 205 138 163 244 187 -123 133 -173 -204 -137 -163 -243 vhcurveto
            106 -993 rmoveto
            8 callgsubr
            endchar
          </CharString>
          <CharString index="92">
            124 1252 420 rmoveto
            1 3 5 23 4 vvcurveto
            -309 hlineto
            -108 -20 -79 -83 -143 hhcurveto
            -141 -100 91 162 1 hvcurveto
            14 2 22 1 16 vhcurveto
            1 1 1 1 vvcurveto
            436 hlineto
            41 243 rlineto
            -441 hlineto
            1 7 8 40 2 6 rrcurveto
            157 36 93 92 143 hhcurveto
            142 77 -96 -104 5 hvcurveto
            -5 0 -7 -5 vvcurveto
            316 hlineto
            2 17 1 19 12 vvcurveto
            224 -191 222 -350 -341 -216 -207 -340 -60 vhcurveto
            -29 -160 rlineto
            -10 -58 -3 -57 -34 vvcurveto
            -370 221 -187 332 353 168 194 250 45 vhcurveto
            return
          </CharString>
          <CharString index="93">
            -41 callsubr
            rmoveto
            return
          </CharString>
          <CharString index="94">
            rmoveto
            -51 -40 38 50 51 40 38 51 50 40 -38 -51 -51 -39 -37 -51 hvcurveto
            -5 -135 rmoveto
            126 106 93 131 123 -95 99 -129 -124 -107 -92 -132 -123 94 -99 129 hvcurveto
            165 528 rmoveto
            234 185 rlineto
            -275 hlineto
            -189 -185 rlineto
            endchar
          </CharString>
          <CharString index="95">
            187 -125 134 -170 -92 -82 -40 -45 -37 vhcurveto
            -33 hlineto
            142 37 136 93 163 hhcurveto
            19 26 -1 -2 15 hvcurveto
            25 128 rlineto
            4 -19 -40 3 -33 hhcurveto
            -298 -216 -210 -308 -271 166 -161 209 195 154 140 207 hvcurveto
            return
          </CharString>
          <CharString index="96">
            hmoveto
            559 hlineto
            49 278 rlineto
            -220 12 hlineto
            133 95 66 107 25 131 27 135 rcurveline
            9 45 4 66 31 vvcurveto
            307 -212 182 -346 -334 -238 -180 -309 -59 vhcurveto
            -31 -162 rlineto
            -8 -41 -2 -57 -27 vvcurveto
            -132 45 -106 90 -85 vhcurveto
            -12 -220 vlineto
            -48 -278 rlineto
            526 hlineto
            58 331 rlineto
            -81 41 -47 97 117 vvcurveto
            29 3 37 8 42 vhcurveto
            25 132 rlineto
            194 38 101 98 153 hhcurveto
            154 88 -92 -152 -36 -3 -40 -10 -54 hvcurveto
            -20 -101 -34 -177 -77 -99 -114 -43 rlinecurve
            return
          </CharString>
          <CharString index="97" raw="1">
            600a0e   
          </CharString>
          <CharString index="98">
            rmoveto
            -152 -163 -71 -136 -39 -200 -36 -214 27 -211 79 -129 rrcurveto
            263 hlineto
            -69 191 -17 170 32 193 38 192 102 209 102 98 rrcurveto
            endchar
          </CharString>
          <CharString index="99">
            -25 rmoveto
            323 209 233 277 235 -174 163 -225 -147 -106 -73 -82 -50 hvcurveto
            -18 hlineto
            209 13 113 199 176 hhcurveto
            98 73 -62 -72 7 hvcurveto
            298 hlineto
            1 8 0 11 -1 12 rrcurveto
            205 -10 -190 150 -247 hhcurveto
            -246 -191 -125 -211 -112 hvcurveto
            -70 -130 -40 -172 -180 vvcurveto
            -356 184 -239 332 vhcurveto
            24 695 rmoveto
            116 81 -88 -114 -130 -88 -110 -126 -114 -84 96 118 120 90 108 125 hvcurveto
            endchar
          </CharString>
          <CharString index="100">
            rlineto
            -14 hlineto
            return
          </CharString>
          <CharString index="101">
            rmoveto
            50 242 rlineto
            -238 hlineto
            49 247 rlineto
            -249 hlineto
            -49 -247 79 callgsubr
            -50 -242 rlineto
            238 hlineto
            -49 -246 rlineto
            249 hlineto
            49 246 rlineto
            endchar
          </CharString>
          <CharString index="102">
            281 434 -14 callsubr
            -95 -531 rlineto
            -171 hlineto
            -50 -288 rlineto
            172 hlineto
            -97 -546 rlineto
            507 hlineto
            403 264 215 342 73 hvcurveto
            6 27 15 84 2 27 rrcurveto
            6 43 2 49 36 vvcurveto
            319 -189 223 -342 vhcurveto
            -223 -269 rmoveto
            114 hlineto
            169 133 -78 -209 -23 -2 -43 -4 -30 hvcurveto
            -2 -26 -13 -74 -6 -21 rrcurveto
            -229 -52 -173 -95 -211 hhcurveto
            -101 hlineto
            50 278 rlineto
            204 hlineto
            50 288 rlineto
            -204 hlineto
            endchar
          </CharString>
          <CharString index="103">
            rmoveto
            41 237 rlineto
            -732 -21 callgsubr
            147 831 rlineto
            return
          </CharString>
          <CharString index="104">
            rmoveto
            137 11 81 56 27 151 39 217 rcurveline
            133 23 45 55 161 hhcurveto
            42 hlineto
            40 230 rlineto
            -115 hlineto
            -282 -157 -77 -288 -52 hvcurveto
            -30 -166 rlineto
            -134 -24 -41 -61 -128 hhcurveto
            -49 -285 rlineto
            129 19 -63 -132 -24 hvcurveto
            -19 -103 -15 -98 -8 vvcurveto
            -244 -35 110 -93 285 hhcurveto
            119 hlineto
            40 229 rlineto
            -42 hlineto
            -155 -27 35 131 17 hvcurveto
            7 19 111 22 115 vhcurveto
            26 147 -65 81 -127 12 rrcurveto
            endchar
          </CharString>
          <CharString index="105">
            35 831 580 rmoveto
            42 245 rlineto
            -167 hlineto
            -103 -61 48 87 107 88 74 132 127 69 -83 -108 -17 hvcurveto
            302 hlineto
            263 32 -145 176 -369 hhcurveto
            -292 -241 -167 -246 -133 84 -94 137 -23 hvcurveto
            -4 -17 rlineto
            -212 -22 -151 -147 -191 vvcurveto
            -234 185 -140 319 344 195 181 268 53 vhcurveto
            -298 hlineto
            -115 -25 -107 -81 -144 hhcurveto
            -120 -73 58 100 106 90 88 164 hvcurveto
            return
          </CharString>
          <CharString index="106">
            -106 callsubr
            endchar
          </CharString>
          <CharString index="107">
            rmoveto
            -78 55 -53 83 86 98 callsubr
            -55 20 callgsubr
            vhcurveto
            424 hmoveto
            -78 54 -53 84 85 callgsubr
            vhcurveto
            -169 218 rmoveto
            207 hlineto
            301 352 rlineto
            -250 hlineto
            endchar
          </CharString>
          <CharString index="108">
            473 rmoveto
            -333 253 -165 274 304 240 201 299 249 -167 174 -226 -83 -56 -24 -24 -26 vhcurveto
            -23 hlineto
            4 8 44 48 24 27 72 83 310 292 67 57 rrcurveto
            -428 hlineto
            -79 -71 -185 -189 -32 -37 rrcurveto
            -170 -184 -117 -185 -226 vvcurveto
            537 225 rmoveto
            131 100 -100 -129 -131 -103 -101 -133 -133 -95 101 127 131 101 102 132 hvcurveto
            endchar
          </CharString>
          <CharString index="109">
            -104 673 41 callgsubr
            return
          </CharString>
          <CharString index="110">
            -40 callgsubr
            endchar
          </CharString>
          <CharString index="111">
            rmoveto
            -51 -40 39 50 50 41 38 50 51 40 -37 -51 -51 -40 -38 -51 hvcurveto
            -4 -134 rmoveto
            125 106 92 131 123 -94 100 -129 -125 -106 -93 -131 -123 93 -99 115 callsubr
          </CharString>
          <CharString index="112">
            319 hlineto
            254 1437 55 callgsubr
            return
          </CharString>
          <CharString index="113" raw="1">
            941d0e   
          </CharString>
          <CharString index="114" raw="1">
            15360a0e   
          </CharString>
          <CharString index="115">
            hlineto
            71 402 rlineto
            -321 -21 callgsubr
            75 428 rlineto
            return
          </CharString>
          <CharString index="116">
            -98 callgsubr
            329 hlineto
            return
          </CharString>
          <CharString index="117">
            -178 -49 callsubr
            return
          </CharString>
          <CharString index="118">
            960 rmoveto
            2 14 rlineto
            91 8 75 71 103 hhcurveto
            108 55 -76 -80 -107 -98 -91 -92 -77 hvcurveto
            -552 -462 -41 -243 rlineto
            978 hlineto
            47 258 rlineto
            -561 hlineto
            4 16 342 270 rlineto
            159 122 133 141 203 vvcurveto
            270 -239 109 -229 -284 -198 -161 -229 -13 vhcurveto
            -2 -39 rlineto
            endchar
          </CharString>
          <CharString index="119">
            rmoveto
            45 220 rlineto
            -713 hlineto
            -46 -220 rlineto
            786 342 rmoveto
            46 220 rlineto
            -714 hlineto
            -46 -220 rlineto
            endchar
          </CharString>
          <CharString index="120">
            759 238 rmoveto
            -359 hlineto
            3 15 59 71 34 115 49 229 rlinecurve
            37 163 rlineto
            283 hlineto
            -684 -1116 rmoveto
            50 285 rlineto
            677 56 callgsubr
            276 hlineto
            92 523 rlineto
            -151 61 callgsubr
            -878 hlineto
            -80 -392 -57 -267 -39 -121 -83 -50 rlinecurve
            -90 hlineto
            -91 -523 rlineto
            endchar
          </CharString>
          <CharString index="121">
            1579 -101 callgsubr
            return
          </CharString>
          <CharString index="122">
            -577 rlineto
            320 hlineto
            return
          </CharString>
          <CharString index="123">
            rmoveto
            40 233 rlineto
            -413 hlineto
            126 219 rlineto
            326 hlineto
            41 234 rlineto
            -240 hlineto
            127 241 rlineto
            -284 hlineto
            -128 -241 rlineto
            -462 hlineto
            -40 -234 rlineto
            375 hlineto
            -126 -219 rlineto
            -288 hlineto
            -41 -233 rlineto
            200 hlineto
            -112 -211 rlineto
            285 hlineto
            112 211 rlineto
            endchar
          </CharString>
          <CharString index="124">
            194 1098 rlineto
            573 hlineto
            47 267 rlineto
            -902 -98 callgsubr
            return
          </CharString>
          <CharString index="125">
            rmoveto
            348 188 206 239 213 -145 130 -294 hvcurveto
            -128 hlineto
            54 305 rlineto
            -318 hlineto
            -112 -627 rlineto
            -310 -54 165 -156 296 hhcurveto
            27 232 rmoveto
            -97 -47 66 109 19 hvcurveto
            27 152 rlineto
            117 hlineto
            116 52 -50 -84 -96 -65 -97 -122 hvcurveto
            endchar
          </CharString>
          <CharString index="126">
            rmoveto
            249 hlineto
            155 167 rlineto
            13 -33 callgsubr
            return
          </CharString>
          <CharString index="127">
            53 callgsubr
            78 return
          </CharString>
          <CharString index="128">
            214 1201 hmoveto
            -43 callsubr
            return
          </CharString>
          <CharString index="129">
            rmoveto
            -257 hlineto
            -141 -104 rlineto
            -5 hlineto
            -96 104 rlineto
            -244 hlineto
            223 -197 rlineto
            215 hlineto
            -316 -291 rmoveto
            -22 callgsubr
            390 hmoveto
            -22 callgsubr
            endchar
          </CharString>
          <CharString index="130">
            rmoveto
            30 78 callsubr
            -30 -155 rlineto
            397 -409 rmoveto
            130 101 114 158 11 hvcurveto
            -162 hlineto
            -59 -6 -25 -35 -42 -77 -25 130 -145 hhcurveto
            -144 -83 -126 -146 -11 hvcurveto
            162 hlineto
            58 5 28 36 42 74 26 -130 141 hhcurveto
            endchar
          </CharString>
          <CharString index="131">
            hmoveto
            92 515 rlineto
            529 hlineto
            45 258 rlineto
            -529 hlineto
            58 325 rlineto
            580 hlineto
            47 267 rlineto
            -910 -98 callgsubr
            return
          </CharString>
          <CharString index="132">
            rmoveto
            -74 59 -56 74 75 58 56 74 74 -58 57 -75 -74 -59 -57 -74 vhcurveto
            499 354 100 callgsubr
            -28 -147 113 callsubr
            endchar
          </CharString>
          <CharString index="133">
            95 791 hmoveto
            673 -39 callsubr
            -361 hlineto
            -457 -1048 rlineto
            -16 hlineto
            -87 1048 rlineto
            -360 hlineto
            199 83 callgsubr
            return
          </CharString>
          <CharString index="134">
            633 rmoveto
            15 hlineto
            145 -497 rlineto
            184 hlineto
            319 497 rlineto
            15 hlineto
            -112 -633 rlineto
            293 60 callsubr
            -369 hlineto
            -355 -572 rlineto
            -15 hlineto
            -152 572 rlineto
            -370 40 callsubr
            291 hlineto
            endchar
          </CharString>
          <CharString index="135" raw="1">
            0666fb64 dc0a768d 8d7e1f63 fb780587
            0b   
          </CharString>
          <CharString index="136">
            1236 85 callsubr
            195 311 rmoveto
            53 callgsubr
            79 -55 52 -84 -84 -55 -52 -79 -79 55 -53 84 hvcurveto
            423 hmoveto
            86 53 53 79 79 -54 52 -85 -84 -54 -52 -79 -79 54 -53 84 hvcurveto
            endchar
          </CharString>
          <CharString index="137">
            100 callgsubr
            -27 -147 113 callsubr
            return
          </CharString>
          <CharString index="138">
            -14 callsubr
            -340 hlineto
            -559 -866 -49 -274 rlineto
            624 hlineto
            -41 -225 rlineto
            301 hlineto
            40 225 rlineto
            173 hlineto
            47 270 rlineto
            -180 hlineto
            57 325 rlineto
            -290 hlineto
            -56 -318 rlineto
            -272 hlineto
            1 5 rlineto
            endchar
          </CharString>
          <CharString index="139">
            rmoveto
            346 hlineto
            42 240 rlineto
            -346 hlineto
            37 212 rlineto
            -288 hlineto
            -37 -212 rlineto
            -341 hlineto
            -42 -240 rlineto
            341 hlineto
            -41 -230 rlineto
            288 hlineto
            294 -325 rmoveto
            40 230 rlineto
            -975 hlineto
            -40 -230 rlineto
            endchar
          </CharString>
          <CharString index="140" raw="1">
            15fb6ffb 47f748f7 70f770f7 47f748f7
            6ff76ff7 47fb48fb 70fb70fb 47fb48fb
            6f1ff76b 04f1dfe0 efef37e0 25253736
            2727df36 f11f0e  
          </CharString>
          <CharString index="141">
            rmoveto
            41 237 rlineto
            -915 hlineto
            -41 -237 rlineto
            296 87 callgsubr
            147 831 rlineto
            endchar
          </CharString>
          <CharString index="142">
            -102 302 hmoveto
            370 hlineto
            521 1068 rlineto
            -336 hlineto
            -314 -785 -7 callsubr
            -59 785 rlineto
            -334 hlineto
            return
          </CharString>
          <CharString index="143">
            rmoveto
            216 hlineto
            -208 351 rlineto
            -264 hlineto
            666 -491 rmoveto
            65 callsubr
            648 hlineto
            endchar
          </CharString>
          <CharString index="144">
            -240 -99 callsubr
            return
          </CharString>
          <CharString index="145">
            -646 167 -377 rmoveto
            297 627 90 callsubr
            -232 -627 rlineto
            273 1189 47 callsubr
            117 -86 74 -111 -109 -86 -72 -119 vhcurveto
            endchar
          </CharString>
          <CharString index="146">
            rmoveto
            186 -342 rlineto
            236 hlineto
            310 342 rlineto
            -246 hlineto
            -150 -196 rlineto
            -12 hlineto
            -87 196 rlineto
            150 31 rmoveto
            79 64 64 80 80 -64 64 -79 -80 -64 -64 -80 -80 64 -64 80 hvcurveto
            endchar
          </CharString>
          <CharString index="147">
            hlineto
            -188 -1068 rlineto
            return
          </CharString>
          <CharString index="148">
            rmoveto
            -255 hlineto
            -144 -110 rlineto
            -5 hlineto
            -100 110 rlineto
            -239 hlineto
            223 -208 rlineto
            216 hlineto
            -170 347 rmoveto
            -56 47 -47 57 58 46 47 56 57 -46 46 -58 -57 -47 -46 -57 vhcurveto
            endchar
          </CharString>
          <CharString index="149">
            rmoveto
            -165 222 -346 -274 -241 313 -222 -176 241 -314 -343 -274 164 -222 343 274 244 -317 221 177 -244 318 rlineto
            endchar
          </CharString>
          <CharString index="150">
            rmoveto
            66 -135 58 -194 -284 vvcurveto
            -573 -264 -419 -156 -147 vhcurveto
            304 hlineto
            217 190 227 407 551 vvcurveto
            234 -68 243 -76 127 vhcurveto
            endchar
          </CharString>
          <CharString index="151" raw="1">
            39f7e316 be1d0b  
          </CharString>
          <CharString index="152" raw="1">
            15f9da06 b80b  
          </CharString>
          <CharString index="153">
            rmoveto
            924 -308 46 262 -503 142 2 12 555 146 46 266 -1037 -325 rlineto
            843 -806 rmoveto
            41 237 rlineto
            -982 hlineto
            -41 -237 rlineto
            endchar
          </CharString>
          <CharString index="154">
            rmoveto
            -117 87 -71 108 93 callsubr
            return
          </CharString>
          <CharString index="155">
            hmoveto
            241 -39 callsubr
            return
          </CharString>
          <CharString index="156">
            -656 rmoveto
            186 32 -121 121 -202 hhcurveto
            -221 -146 -118 -189 -29 hvcurveto
            179 hlineto
            90 16 60 57 114 hhcurveto
            109 46 -57 -90 -16 hvcurveto
            endchar
          </CharString>
          <CharString index="157">
            rmoveto
            -91 callsubr
            return
          </CharString>
          <CharString index="158">
            -319 hlineto
            -187 -1056 rlineto
            -79 -14 -53 -46 -85 hhcurveto
            -29 -25 4 4 -14 hvcurveto
            -45 -242 rlineto
            -6 26 61 -6 38 hhcurveto
            270 145 116 251 44 hvcurveto
            return
          </CharString>
          <CharString index="159">
            55 callsubr
            endchar
          </CharString>
          <CharString index="160">
            rmoveto
            -65 callsubr
            return
          </CharString>
          <CharString index="161">
            -84 -106 -22 -2 -42 -4 -25 hvcurveto
            return
          </CharString>
          <CharString index="162">
            -11 -73 rlineto
            55 -19 callsubr
            return
          </CharString>
          <CharString index="163">
            rmoveto
            192 34 -111 137 -209 hhcurveto
            -221 -122 -141 -188 -32 hvcurveto
            179 hlineto
            99 17 59 69 106 hhcurveto
            106 33 -69 -99 -17 hvcurveto
            return
          </CharString>
          <CharString index="164">
            rmoveto
            203 hlineto
            308 352 rlineto
            -248 hlineto
            -399 -275 rmoveto
            80 64 63 80 80 -64 64 -80 -79 -64 -64 -80 -80 64 -63 79 hvcurveto
            endchar
          </CharString>
          <CharString index="165">
            1640 63 callsubr
          </CharString>
          <CharString index="166">
            rmoveto
            52 251 rlineto
            -642 hlineto
            -52 -251 rlineto
            endchar
          </CharString>
          <CharString index="167">
            hlineto
            22 callgsubr
            return
          </CharString>
          <CharString index="168">
            90 42 91 hhcurveto
            126 70 -68 -90 -105 -71 -87 -124 -34 -41 6 7 -22 hvcurveto
            -44 -249 rlineto
            -11 36 64 -8 58 hhcurveto
            endchar
          </CharString>
          <CharString index="169">
            rmoveto
            -41 -235 rlineto
            295 hlineto
            -222 -1248 rlineto
            -295 hlineto
            -46 -269 rlineto
            598 hlineto
            310 1752 rlineto
            endchar
          </CharString>
          <CharString index="170">
            100 callgsubr
            -27 -146 113 callsubr
            -174 255 rmoveto
            -186 191 rlineto
            -245 hlineto
            233 -191 rlineto
            endchar
          </CharString>
          <CharString index="171">
            76 callgsubr
            -133 rlineto
            -8 return
          </CharString>
          <CharString index="172">
            -647 hlineto
            -30 -154 rlineto
            return
          </CharString>
          <CharString index="173">
            rmoveto
            1848 hlineto
            33 184 112 callgsubr
            47 101 callgsubr
            46 return
          </CharString>
          <CharString index="174">
            rmoveto
            -9 callgsubr
            endchar
          </CharString>
          <CharString index="175" raw="1">
            15f7b61c 066b05fb 3806fbb6 1cf99505
            0b   
          </CharString>
          <CharString index="176">
            rmoveto
            -120 88 -72 111 113 89 72 120 119 -88 75 -114 -111 -88 -73 -121 vhcurveto
            endchar
          </CharString>
          <CharString index="177">
            rmoveto
            -836 510 -54 -309 509 -281 -3 -14 -607 -279 -55 -315 1012 492 rlineto
            endchar
          </CharString>
          <CharString index="178">
            -19 rmoveto
            320 194 210 271 223 -156 163 -266 -117 -107 -42 -54 -54 hvcurveto
            -14 hlineto
            return
          </CharString>
          <CharString index="179">
            -43 hvcurveto
            -27 -153 rlineto
            -222 -40 return
          </CharString>
          <CharString index="180">
            241 1365 110 callgsubr
            return
          </CharString>
          <CharString index="181">
            63 132 16 hvcurveto
            2 10 return
          </CharString>
          <CharString index="182">
            1068 rmoveto
            -319 hlineto
            return
          </CharString>
          <CharString index="183">
            rlineto
            -837 hlineto
            return
          </CharString>
          <CharString index="184">
            hlineto
            -147 -830 rlineto
            -259 61 callgsubr
            return
          </CharString>
          <CharString index="185">
            155 rlineto
            -648 hlineto
            return
          </CharString>
          <CharString index="186">
            -481 rmoveto
            88 callgsubr
            return
          </CharString>
          <CharString index="187">
            rmoveto
            -2 -8 264 -402 rlineto
            284 hlineto
            -263 return
          </CharString>
          <CharString index="188" raw="1">
            0538f20a 0b  
          </CharString>
          <CharString index="189">
            rmoveto
            -228 -158 -176 -268 -49 hvcurveto
            -21 -103 rlineto
            -10 -47 -3 -52 -54 vvcurveto
            -244 return
          </CharString>
          <CharString index="190">
            rmoveto
            104 590 rlineto
            -1039 hlineto
            -44 -257 rlineto
            750 hlineto
            -60 -333 rlineto
            endchar
          </CharString>
          <CharString index="191">
            hlineto
            -50 -286 rlineto
            292 hlineto
            113 callgsubr
            return
          </CharString>
          <CharString index="192">
            rmoveto
            29 154 rlineto
            65 callsubr
            return
          </CharString>
          <CharString index="193">
            29 callgsubr
            330 hlineto
            return
          </CharString>
          <CharString index="194">
            240 -39 callsubr
            return
          </CharString>
          <CharString index="195">
            413 hmoveto
            -57 callsubr
          </CharString>
          <CharString index="196">
            -491 rlineto
            209 hlineto
            148 491 rlineto
            return
          </CharString>
          <CharString index="197">
            rlineto
            -319 hlineto
            return
          </CharString>
          <CharString index="198">
            rmoveto
            310 1752 rlineto
            -285 hlineto
            -310 -1752 rlineto
            endchar
          </CharString>
          <CharString index="199">
            rmoveto
            810 1752 rlineto
            -285 hlineto
            -810 -1752 rlineto
            endchar
          </CharString>
          <CharString index="200">
            110 87 71 117 return
          </CharString>
          <CharString index="201">
            60 -12 69 hhcurveto
            return
          </CharString>
          <CharString index="202">
            63 132 16 60 callgsubr
            -65 109 callsubr
            return
          </CharString>
          <CharString index="203" raw="1">
            fb1ffb8e 651f8668 8a655d21 9d222a1a
            680b   
          </CharString>
          <CharString index="204" raw="1">
            fb67fc01 431f74fb 0b050b 
          </CharString>
          <CharString index="205">
            54 53 78 79 return
          </CharString>
          <CharString index="206">
            hmoveto
            -15 callgsubr
            return
          </CharString>
          <CharString index="207">
            -247 -1393 rlineto
            299 hlineto
            247 1393 rlineto
            return
          </CharString>
          <CharString index="208">
            10 9 vvcurveto
            92 -64 109 callsubr
            return
          </CharString>
          <CharString index="209">
            hlineto
            -193 -1093 rlineto
            329 hlineto
            return
          </CharString>
          <CharString index="210" raw="1">
            7c5d652d 1b780b  
          </CharString>
          <CharString index="211" raw="1">
            06f61d0b   
          </CharString>
          <CharString index="212">
            rmoveto
            49 288 rlineto
            return
          </CharString>
          <CharString index="213" raw="1">
            62fb8205 0b  
          </CharString>
          <CharString index="214" raw="1">
            c388b11b f790f73e f70bf779 b31f0b
          </CharString>
          <CharString index="215">
            rmoveto
            50 283 rlineto
            -975 hlineto
            -49 -283 rlineto
            endchar
          </CharString>
          <CharString index="216">
            54 -94 1 vhcurveto
            return
          </CharString>
          <CharString index="217" raw="1">
            fbb115f7 b006f766 f87e97cd 050b
          </CharString>
          <CharString index="218">
            16 82 callgsubr
            return
          </CharString>
          <CharString index="219">
            -193 -339 -61 return
          </CharString>
          <CharString index="220">
            rlineto
            645 hlineto
            return
          </CharString>
          <CharString index="221">
            rlineto
            -302 hlineto
            return
          </CharString>
          <CharString index="222">
            130 hvcurveto
            endchar
          </CharString>
          <CharString index="223">
            72 52 55 68 68 -52 55 -72 -72 -52 -55 -68 return
          </CharString>
          <CharString index="224">
            -436 rlineto
            -8 hlineto
            -75 436 rlineto
            -270 hlineto
            return
          </CharString>
          <CharString index="225" raw="1">
            d315fba9 064cfbf9 05f7a906 0b
          </CharString>
          <CharString index="226">
            rmoveto
            -705 -408 562 -408 rlineto
            endchar
          </CharString>
          <CharString index="227">
            -104 138 hhcurveto
            endchar
          </CharString>
          <CharString index="228">
            rlineto
            139 25 return
          </CharString>
          <CharString index="229">
            -20 -111 rlineto
            return
          </CharString>
          <CharString index="230">
            vhcurveto
            21 115 rlineto
            10 53 4 62 62 vvcurveto
            return
          </CharString>
          <CharString index="231">
            -50 hhcurveto
            -32 -56 6 return
          </CharString>
          <CharString index="232">
            rlineto
            -328 hlineto
            return
          </CharString>
          <CharString index="233">
            1437 rlineto
            return
          </CharString>
          <CharString index="234" raw="1">
            fbb115f7 af06f767 f87e0b 
          </CharString>
          <CharString index="235">
            357 209 254 302 234 return
          </CharString>
          <CharString index="236">
            rlineto
            312 hlineto
            return
          </CharString>
          <CharString index="237">
            rlineto
            359 hlineto
            return
          </CharString>
        <CharString name=".notdef">
          819 -67 -494 rmoveto
          1848 hlineto
          33 183 112 callgsubr
          47 269 66 callsubr
          268 66 callsubr
          269 rmoveto
          1848 hlineto
          33 183 112 callgsubr
          endchar
        </CharString>
        <CharString name=".null">
          endchar
        </CharString>
        <CharString name="A">
          105 -53 -103 callsubr
          endchar
        </CharString>
        <CharString name="AE">
          695 988 -37 callsubr
          endchar
        </CharString>
        <CharString name="AEacute">
          695 988 -37 callsubr
          526 1204 -71 callgsubr
        </CharString>
        <CharString name="AEmacron">
          695 988 -37 callsubr
          1023 1344 -42 callgsubr
        </CharString>
        <CharString name="Aacute">
          105 -53 -103 callsubr
          -66 433 -71 callgsubr
        </CharString>
        <CharString name="Abreve">
          105 -53 -103 callsubr
          -213 709 -68 callgsubr
          endchar
        </CharString>
        <CharString name="Abreveacute">
          105 -53 -103 callsubr
          -200 668 -4 callgsubr
          38 16 rmoveto
          191 hlineto
          227 194 rlineto
          -242 hlineto
          endchar
        </CharString>
        <CharString name="Abrevedotbelow">
          105 -53 -103 callsubr
          -213 709 -68 callgsubr
          -329 -2016 -96 callsubr
        </CharString>
        <CharString name="Abrevegrave">
          105 -53 -103 callsubr
          -200 668 -4 callgsubr
          257 16 rmoveto
          -143 194 rlineto
          -240 hlineto
          188 -194 rlineto
          endchar
        </CharString>
        <CharString name="Abrevehookabove">
          105 -53 -103 callsubr
          -188 633 11 callgsubr
        </CharString>
        <CharString name="Abrevetilde">
          105 -53 -103 callsubr
          -181 627 7 callgsubr
        </CharString>
        <CharString name="Acaron">
          105 -53 -103 callsubr
          501 669 -82 callsubr
          endchar
        </CharString>
        <CharString name="Acircumflex">
          105 -53 -103 callsubr
          -296 418 -72 callgsubr
          endchar
        </CharString>
        <CharString name="Acircumflexacute">
          16 callgsubr
          361 -67 rmoveto
          198 hlineto
          286 248 rlineto
          -243 hlineto
          endchar
        </CharString>
        <CharString name="Acircumflexdotbelow">
          105 -53 -103 callsubr
          -296 418 -72 callgsubr
          -355 -1971 -96 callsubr
        </CharString>
        <CharString name="Acircumflexgrave">
          16 callgsubr
          638 -68 rmoveto
          -177 249 rlineto
          -223 hlineto
          203 -249 rlineto
          endchar
        </CharString>
        <CharString name="Acircumflexhookabove">
          16 callgsubr
          285 91 rmoveto
          3 12 14 2 26 hhcurveto
          53 32 -23 -39 -26 -17 -22 -30 -15 hvcurveto
          72 -82 rlineto
          62 28 60 60 78 vvcurveto
          108 -82 39 -115 -33 -33 -5 -5 -15 vhcurveto
          endchar
        </CharString>
        <CharString name="Acircumflextilde">
          105 -53 -103 callsubr
          -265 429 -36 callsubr
        </CharString>
        <CharString name="Acyrillic">
          125 -43 -103 callsubr
          endchar
        </CharString>
        <CharString name="Adblgrave">
          105 -53 -103 callsubr
          433 vmoveto
          -25 callsubr
        </CharString>
        <CharString name="Adieresis">
          105 -53 -103 callsubr
          -222 512 -101 callgsubr
          endchar
        </CharString>
        <CharString name="Adieresismacron">
          105 -53 -103 callsubr
          470 853 -20 callsubr
        </CharString>
        <CharString name="Adotaccent">
          105 -53 -103 callsubr
          -36 563 -80 callgsubr
        </CharString>
        <CharString name="Adotbelow">
          105 -53 -103 callsubr
          -367 -1307 -96 callsubr
        </CharString>
        <CharString name="Adotmacron">
          105 -53 -103 callsubr
          -46 499 25 callsubr
        </CharString>
        <CharString name="Agrave">
          105 -53 -103 callsubr
          197 433 rmoveto
          -179 -49 callsubr
          endchar
        </CharString>
        <CharString name="Ahookabove">
          105 -53 -103 callsubr
          -35 636 -58 callgsubr
          endchar
        </CharString>
        <CharString name="Ainvertedbreve">
          105 -53 -103 callsubr
          424 403 -48 callsubr
          endchar
        </CharString>
        <CharString name="Alphagreek">
          105 -53 -103 callsubr
          endchar
        </CharString>
        <CharString name="Alphatonosgreek">
          282 124 -103 callsubr
          -742 -99 -23 callgsubr
        </CharString>
        <CharString name="Amacron">
          105 -53 -103 callsubr
          431 573 -42 callgsubr
        </CharString>
        <CharString name="Aogonek">
          105 1042 -383 rmoveto
          57 72 11 10 26 hvcurveto
          29 169 rlineto
          -3 -14 -37 -4 -24 hhcurveto
          -76 -30 39 49 2 hvcurveto
          4 76 67 52 102 39 -193 1310 rcurveline
          -404 hlineto
          -676 -1365 122 callgsubr
          144 312 rlineto
          416 hlineto
          30 -295 rlineto
          79 -12 hlineto
          -53 -32 -68 -53 -10 -102 rrcurveto
          -126 -15 100 -75 137 hhcurveto
          -263 1450 rmoveto
          47 -514 rlineto
          -297 hlineto
          232 514 rlineto
          endchar
        </CharString>
        <CharString name="Aring">
          105 -53 -103 callsubr
          114 522 4 callsubr
        </CharString>
        <CharString name="Aringacute">
          105 -53 -103 callsubr
          13 739 34 callgsubr
        </CharString>
        <CharString name="Aringbelow">
          105 -53 -103 callsubr
          -220 -1457 -78 callsubr
        </CharString>
        <CharString name="Atilde">
          105 -53 -103 callsubr
          206 387 -87 callgsubr
          endchar
        </CharString>
        <CharString name="B">
          102 74 -77 callgsubr
          endchar
        </CharString>
        <CharString name="Bdotaccent">
          102 74 -77 callgsubr
          276 1399 -80 callgsubr
        </CharString>
        <CharString name="Bdotbelow">
          102 74 -77 callgsubr
          -38 -471 -96 callsubr
        </CharString>
        <CharString name="Becyrillic">
          75 639 hmoveto
          336 185 155 226 45 hvcurveto
          7 34 4 37 34 vvcurveto
          231 -163 146 -283 vhcurveto
          -205 hlineto
          42 235 rlineto
          596 hlineto
          47 267 rlineto
          -924 -98 callgsubr
          374 265 rmoveto
          64 355 rlineto
          174 hlineto
          114 76 -50 -101 -17 -3 -21 -5 -16 hvcurveto
          -83 -19 -75 -67 -156 hhcurveto
          endchar
        </CharString>
        <CharString name="Betagreek">
          102 74 -77 callgsubr
          endchar
        </CharString>
        <CharString name="Blinebelow">
          102 74 -77 callgsubr
          406 -582 -79 callsubr
        </CharString>
        <CharString name="C">
          104 496 795 -89 callgsubr
          endchar
        </CharString>
        <CharString name="Cacute">
          104 496 795 -89 callgsubr
          240 841 -71 callgsubr
        </CharString>
        <CharString name="Ccaron">
          104 496 795 -89 callgsubr
          807 1077 -82 callsubr
          endchar
        </CharString>
        <CharString name="Ccedilla">
          104 577 -66 callgsubr
          endchar
        </CharString>
        <CharString name="Ccedillaacute">
          104 577 -66 callgsubr
          132 1981 -71 callgsubr
        </CharString>
        <CharString name="Ccircumflex">
          104 496 795 -89 callgsubr
          -9 826 -72 callgsubr
          endchar
        </CharString>
        <CharString name="Cdotaccent">
          104 496 795 -89 callgsubr
          270 971 -80 callgsubr
        </CharString>
        <CharString name="Checyrillic">
          21 callsubr
          endchar
        </CharString>
        <CharString name="Chigreek">
          74 1073 1365 -53 callgsubr
          endchar
        </CharString>
        <CharString name="D">
          161 -95 callsubr
          endchar
        </CharString>
        <CharString name="Dcaron">
          161 -95 callsubr
          828 1468 -82 callsubr
          endchar
        </CharString>
        <CharString name="Dcircumflexbelow">
          161 -95 callsubr
          -301 -684 -57 callgsubr
          endchar
        </CharString>
        <CharString name="Dcommaaccent">
          161 -95 callsubr
          149 -729 -31 callsubr
        </CharString>
        <CharString name="Dcroat">
          -5 callsubr
        </CharString>
        <CharString name="Ddotaccent">
          161 -95 callsubr
          291 1362 -80 callgsubr
        </CharString>
        <CharString name="Ddotbelow">
          161 -95 callsubr
          -34 -508 -96 callsubr
        </CharString>
        <CharString name="Decyrillic">
          279 935 271 rmoveto
          -484 hlineto
          3 15 87 98 39 148 55 252 rlinecurve
          66 311 rlineto
          380 hlineto
          -882 -1381 rmoveto
          50 286 rlineto
          837 84 callsubr
          -167 hlineto
          194 1094 rlineto
          -990 hlineto
          -113 -532 -68 -323 -41 -157 -125 -82 rlinecurve
          -110 hlineto
          -98 -557 rlineto
          endchar
        </CharString>
        <CharString name="Deltagreek">
          101 1219 164 rmoveto
          -192 1201 rlineto
          -405 hlineto
          -613 -1201 -29 -164 rlineto
          1211 hlineto
          -412 1073 rmoveto
          99 -832 rlineto
          -517 hlineto
          399 832 rlineto
          endchar
        </CharString>
        <CharString name="Djecyrillic">
          355 990 71 callsubr
          62 341 rlineto
          361 hlineto
          47 272 rlineto
          -1058 hlineto
          -48 -272 rlineto
          368 102 callsubr
          87 492 rlineto
          52 46 61 callsubr
        </CharString>
        <CharString name="Dlinebelow">
          161 -95 callsubr
          410 -619 -79 callsubr
        </CharString>
        <CharString name="Dzecyrillic">
          52 85 416 rmoveto
          -102 callgsubr
          endchar
        </CharString>
        <CharString name="Dzhecyrillic">
          249 514 hmoveto
          -50 -286 rlineto
          291 hlineto
          50 286 rlineto
          430 -29 callgsubr
          -329 hlineto
          -194 -1094 rlineto
          -493 hlineto
          194 1094 64 callgsubr
          endchar
        </CharString>
        <CharString name="E">
          -98 callsubr
          endchar
        </CharString>
        <CharString name="Eacute">
          -98 callsubr
          -355 1500 -71 callgsubr
        </CharString>
        <CharString name="Ebreve">
          -98 callsubr
          -502 1776 -68 callgsubr
          endchar
        </CharString>
        <CharString name="Ecaron">
          -98 callsubr
          212 1736 -82 callsubr
          endchar
        </CharString>
        <CharString name="Ecedilla">
          -50 429 hmoveto
          -37 -161 -12 -73 rlineto
          56 -19 callsubr
          97 callgsubr
          0 101 callsubr
          27 110 rlineto
          380 hlineto
          47 268 rlineto
          -585 hlineto
          54 299 rlineto
          550 hlineto
          41 243 rlineto
          -549 hlineto
          53 286 rlineto
          582 hlineto
          46 269 rlineto
          -911 -98 callgsubr
          endchar
        </CharString>
        <CharString name="Ecedillabreve">
          -50 429 hmoveto
          -37 -161 -12 -73 rlineto
          56 -19 callsubr
          97 callgsubr
          0 101 callsubr
          27 110 rlineto
          380 hlineto
          47 268 rlineto
          -585 hlineto
          54 299 rlineto
          550 hlineto
          41 243 rlineto
          -549 hlineto
          53 286 rlineto
          582 hlineto
          46 269 rlineto
          -911 -98 callgsubr
          411 1776 -68 callgsubr
          endchar
        </CharString>
        <CharString name="Ecircumflex">
          -98 callsubr
          -585 68 callgsubr
          endchar
        </CharString>
        <CharString name="Ecircumflexacute">
          -98 callsubr
          -592 1496 -44 callgsubr
          361 -67 rmoveto
          198 hlineto
          286 248 rlineto
          -243 hlineto
          endchar
        </CharString>
        <CharString name="Ecircumflexbelow">
          -98 callsubr
          -919 -416 -57 callgsubr
          endchar
        </CharString>
        <CharString name="Ecircumflexdotbelow">
          -98 callsubr
          -585 68 callgsubr
          -351 -1971 -96 callsubr
        </CharString>
        <CharString name="Ecircumflexgrave">
          -98 callsubr
          -592 1496 -44 callgsubr
          638 -68 rmoveto
          -177 249 rlineto
          -223 hlineto
          203 -249 rlineto
          endchar
        </CharString>
        <CharString name="Ecircumflexhookabove">
          -98 callsubr
          -592 1496 -44 callgsubr
          285 91 rmoveto
          3 12 14 2 26 hhcurveto
          53 32 -23 -39 -26 -17 -22 -30 -15 hvcurveto
          72 -82 rlineto
          62 28 60 60 78 vvcurveto
          108 -82 39 -115 -33 -33 -5 -5 -15 vhcurveto
          endchar
        </CharString>
        <CharString name="Ecircumflextilde">
          -98 callsubr
          -554 1496 -36 callsubr
        </CharString>
        <CharString name="Ecyrillic">
          -15 callsubr
          endchar
        </CharString>
        <CharString name="Edblgrave">
          -98 callsubr
          -289 1500 rmoveto
          -25 callsubr
        </CharString>
        <CharString name="Edieresis">
          -98 callsubr
          -511 14 callsubr
          endchar
        </CharString>
        <CharString name="Edotaccent">
          -98 callsubr
          -325 1630 -80 callgsubr
        </CharString>
        <CharString name="Edotbelow">
          -98 callsubr
          -652 37 callsubr
          endchar
        </CharString>
        <CharString name="Efcyrillic">
          481 1148 1244 rmoveto
          23 131 rlineto
          -309 hlineto
          -22 -129 rlineto
          -10 -19 0 -10 hhcurveto
          -385 -209 -184 -266 -46 hvcurveto
          -15 -89 rlineto
          -4 -24 -3 -23 -23 vvcurveto
          -13 -251 174 -213 345 -44 -23 -139 rcurveline
          309 hlineto
          23 137 rlineto
          -1 10 19 0 10 hhcurveto
          384 209 184 267 46 hvcurveto
          15 89 rlineto
          4 23 3 24 23 vvcurveto
          13 251 -174 213 -345 44 rrcurveto
          -686 -605 rmoveto
          12 1 12 2 13 vhcurveto
          10 63 26 170 113 79 189 4 rlinecurve
          -108 -611 -159 25 -87 84 13 149 rlinecurve
          866 57 rmoveto
          -10 -63 -26 -169 -113 -79 -189 -4 rlinecurve
          108 610 159 -25 87 -83 -13 -150 rlinecurve
          -11 -1 -13 -2 -13 vhcurveto
          endchar
        </CharString>
        <CharString name="Egrave">
          -98 callsubr
          -92 1500 rmoveto
          -179 -49 callsubr
          endchar
        </CharString>
        <CharString name="Ehookabove">
          -98 callsubr
          -324 1703 -58 callgsubr
          endchar
        </CharString>
        <CharString name="Einvertedbreve">
          -98 callsubr
          135 1470 -48 callsubr
          endchar
        </CharString>
        <CharString name="Elcyrillic">
          175 331 833 -40 callsubr
        </CharString>
        <CharString name="Emacron">
          -98 callsubr
          142 1640 -42 callgsubr
        </CharString>
        <CharString name="Emacronacute">
          -98 callsubr
          -314 1749 37 callgsubr
        </CharString>
        <CharString name="Emacrongrave">
          -98 callsubr
          142 58 callsubr
        </CharString>
        <CharString name="Emcyrillic">
          475 382 -66 callsubr
          endchar
        </CharString>
        <CharString name="Encyrillic">
          258 413 -68 callsubr
          endchar
        </CharString>
        <CharString name="Eogonek">
          -50 769 -383 rmoveto
          55 66 11 11 34 hvcurveto
          30 169 rlineto
          -4 -18 -31 -3 -22 hhcurveto
          -66 -43 31 57 6 hvcurveto
          10 94 112 57 97 21 35 207 rcurveline
          -585 hlineto
          54 299 rlineto
          550 hlineto
          42 243 rlineto
          -550 hlineto
          53 286 rlineto
          582 hlineto
          47 269 rlineto
          -912 -98 callgsubr
          588 -13 hlineto
          -63 -43 -45 -63 -6 -73 rrcurveto
          -131 -11 101 -60 131 hhcurveto
          endchar
        </CharString>
        <CharString name="Epsilongreek">
          -98 callsubr
          endchar
        </CharString>
        <CharString name="Epsilontonosgreek">
          411 1430 -102 callsubr
          -1229 968 -23 callgsubr
        </CharString>
        <CharString name="Ercyrillic">
          48 413 hmoveto
          -74 callsubr
          endchar
        </CharString>
        <CharString name="Ereversedcyrillic">
          -90 callgsubr
          endchar
        </CharString>
        <CharString name="Escyrillic">
          124 506 795 -89 callgsubr
          endchar
        </CharString>
        <CharString name="Etagreek">
          251 403 -68 callsubr
          endchar
        </CharString>
        <CharString name="Etatonosgreek">
          699 799 -68 callsubr
          -316 968 -23 callgsubr
        </CharString>
        <CharString name="Eth">
          -5 callsubr
        </CharString>
        <CharString name="Etilde">
          -98 callsubr
          -83 1454 -87 callgsubr
          endchar
        </CharString>
        <CharString name="Etildebelow">
          -98 callsubr
          -411 -443 -60 callgsubr
          endchar
        </CharString>
        <CharString name="Euro">
          21 1270 1344 rmoveto
          26 -58 -126 19 -97 hhcurveto
          -341 -265 -173 -303 -101 hvcurveto
          -125 hlineto
          -27 -156 rlineto
          115 hlineto
          -12 -63 -5 -24 -3 -25 -3 -26 rlinecurve
          -117 hlineto
          -28 -156 rlineto
          148 hlineto
          -299 45 279 -189 369 hhcurveto
          37 41 2 5 32 hvcurveto
          45 260 rlineto
          -4 -24 -37 -2 -37 hhcurveto
          -218 -152 79 148 -48 hvcurveto
          375 hlineto
          28 156 rlineto
          -417 hlineto
          2 16 2 15 3 15 16 92 rcurveline
          418 hlineto
          28 156 rlineto
          -399 hlineto
          139 71 137 75 171 hhcurveto
          82 96 -17 -23 54 hvcurveto
          endchar
        </CharString>
        <CharString name="F">
          -85 403 24 callsubr
          endchar
        </CharString>
        <CharString name="Fdotaccent">
          -85 403 24 callsubr
          587 1630 -80 callgsubr
        </CharString>
        <CharString name="G">
          -97 callsubr
          endchar
        </CharString>
        <CharString name="Gacute">
          -97 callsubr
          544 649 -71 callgsubr
        </CharString>
        <CharString name="Gammagreek">
          -106 74 hmoveto
          329 hlineto
          195 1098 rlineto
          560 hlineto
          46 267 rlineto
          -889 hlineto
          endchar
        </CharString>
        <CharString name="Gbreve">
          -97 callsubr
          397 925 -68 callgsubr
          endchar
        </CharString>
        <CharString name="Gcaron">
          -97 callsubr
          1111 885 -82 callsubr
          endchar
        </CharString>
        <CharString name="Gcircumflex">
          -97 callsubr
          314 634 -72 callgsubr
          endchar
        </CharString>
        <CharString name="Gcommaaccent">
          -97 callsubr
          463 -1312 -31 callsubr
        </CharString>
        <CharString name="Gdotaccent">
          -97 callsubr
          574 779 -80 callgsubr
        </CharString>
        <CharString name="Gecyrillic">
          -90 413 hmoveto
          17 callsubr
          endchar
        </CharString>
        <CharString name="Geupturncyrillic">
          -90 936 -14 callsubr
          -611 -98 callgsubr
          328 hlineto
          194 1098 rlineto
          574 hlineto
          97 553 rlineto
          -291 hlineto
          endchar
        </CharString>
        <CharString name="Gjecyrillic">
          -90 413 hmoveto
          17 callsubr
          552 1500 -71 callgsubr
        </CharString>
        <CharString name="Gmacron">
          -97 callsubr
          1041 789 -42 callgsubr
        </CharString>
        <CharString name="H">
          239 403 -68 callsubr
          endchar
        </CharString>
        <CharString name="Hardsigncyrillic">
          272 902 690 rmoveto
          110 86 -57 -119 -21 -3 -26 -5 -20 hvcurveto
          -102 -20 -82 -80 -154 hhcurveto
          -163 hlineto
          75 425 rlineto
          -450 -690 rmoveto
          554 hlineto
          336 186 173 243 45 hvcurveto
          7 38 3 39 38 vvcurveto
          247 -163 158 -282 vhcurveto
          -192 hlineto
          75 428 rlineto
          -663 hlineto
          -48 -271 122 callgsubr
          endchar
        </CharString>
        <CharString name="Hbar">
          240 546 797 rmoveto
          27 155 rlineto
          503 hlineto
          -28 -155 rlineto
          -550 -270 rmoveto
          504 hlineto
          -93 -527 rlineto
          327 hlineto
          168 952 rlineto
          94 hlineto
          47 271 rlineto
          -95 118 callgsubr
          -504 118 callgsubr
          -95 hlineto
          -47 -271 rlineto
          95 hlineto
          -168 -952 rlineto
          329 hlineto
          endchar
        </CharString>
        <CharString name="Hbrevebelow">
          239 403 -68 callsubr
          224 -112 10 callgsubr
        </CharString>
        <CharString name="Hcaron">
          239 403 -68 callsubr
          1261 1736 -82 callsubr
          endchar
        </CharString>
        <CharString name="Hcedilla">
          239 225 hmoveto
          -38 -161 -11 -73 rlineto
          56 -19 callsubr
          97 callgsubr
          0 101 callsubr
          27 110 100 557 rlineto
          503 hlineto
          -98 -557 rlineto
          327 hlineto
          73 callsubr
          -93 -537 rlineto
          -503 hlineto
          93 537 -90 callsubr
          endchar
        </CharString>
        <CharString name="Hcircumflex">
          239 403 -68 callsubr
          464 68 callgsubr
          endchar
        </CharString>
        <CharString name="Hdieresis">
          239 403 -68 callsubr
          538 14 callsubr
          endchar
        </CharString>
        <CharString name="Hdotaccent">
          239 403 -68 callsubr
          724 1630 -80 callgsubr
        </CharString>
        <CharString name="Hdotbelow">
          239 403 -68 callsubr
          392 37 callsubr
          endchar
        </CharString>
        <CharString name="I">
          -593 -56 callsubr
          endchar
        </CharString>
        <CharString name="I.1">
          -165 1067 1104 rmoveto
          45 261 rlineto
          -255 hlineto
          -328 hlineto
          -254 hlineto
          -46 -261 rlineto
          254 hlineto
          -149 -841 rlineto
          -254 hlineto
          -46 -263 rlineto
          254 hlineto
          329 hlineto
          255 hlineto
          45 263 rlineto
          -254 hlineto
          148 841 rlineto
          endchar
        </CharString>
        <CharString name="IAcyrillic">
          -65 callgsubr
          endchar
        </CharString>
        <CharString name="IJ">
          567 -56 callsubr
          1738 -61 callsubr
          endchar
        </CharString>
        <CharString name="IJacute">
          567 -56 callsubr
          1738 -61 callsubr
          -1300 1088 rmoveto
          230 hlineto
          334 320 rlineto
          -272 hlineto
          868 -320 -71 callgsubr
        </CharString>
        <CharString name="IUcyrillic">
          -88 callgsubr
          endchar
        </CharString>
        <CharString name="Iacute">
          -593 -56 callsubr
          281 1500 -71 callgsubr
        </CharString>
        <CharString name="Iacute.1">
          -165 1099 1820 rmoveto
          -272 hlineto
          -292 -320 rlineto
          230 hlineto
          302 -396 rmoveto
          45 261 rlineto
          -255 hlineto
          -328 hlineto
          -254 hlineto
          -46 -261 rlineto
          254 hlineto
          -149 -841 rlineto
          -254 hlineto
          -46 -263 rlineto
          254 hlineto
          329 hlineto
          255 hlineto
          45 263 rlineto
          -254 hlineto
          148 841 rlineto
          endchar
        </CharString>
        <CharString name="Ibreve">
          -593 -56 callsubr
          134 1776 -68 callgsubr
          endchar
        </CharString>
        <CharString name="Ibreve.1">
          -165 930 1776 rmoveto
          -92 -19 -74 -54 -86 hhcurveto
          -106 -38 69 76 hvcurveto
          1 -175 vlineto
          -2 -15 -4 -24 -16 vvcurveto
          -161 141 -96 158 203 150 113 199 30 vhcurveto
          -41 -672 rmoveto
          45 261 rlineto
          -255 hlineto
          -328 hlineto
          -254 hlineto
          -46 -261 rlineto
          254 hlineto
          -149 -841 rlineto
          -254 hlineto
          -46 -263 rlineto
          254 hlineto
          329 hlineto
          255 hlineto
          45 263 rlineto
          -254 hlineto
          148 841 rlineto
          endchar
        </CharString>
        <CharString name="Icaron">
          -593 -56 callsubr
          848 1736 -82 callsubr
          endchar
        </CharString>
        <CharString name="Icaron.1">
          -165 850 1490 rmoveto
          284 246 rlineto
          -247 hlineto
          -142 -122 rlineto
          -19 hlineto
          -106 122 rlineto
          -239 hlineto
          222 -246 rlineto
          -74 -125 rmoveto
          -254 hlineto
          -46 -261 rlineto
          254 hlineto
          -149 -841 rlineto
          -254 hlineto
          -46 -263 rlineto
          254 hlineto
          329 hlineto
          255 hlineto
          45 263 rlineto
          -254 hlineto
          148 841 rlineto
          256 hlineto
          45 261 rlineto
          -255 hlineto
          endchar
        </CharString>
        <CharString name="Icircumflex">
          -593 -56 callsubr
          51 68 callgsubr
          endchar
        </CharString>
        <CharString name="Icircumflex.1">
          -165 724 1607 rmoveto
          19 hlineto
          106 -122 rlineto
          239 hlineto
          -222 246 rlineto
          -247 hlineto
          -284 -246 rlineto
          247 hlineto
          485 -381 rmoveto
          45 261 rlineto
          -255 hlineto
          -328 hlineto
          -254 hlineto
          -46 -261 rlineto
          254 hlineto
          -149 -841 rlineto
          -254 hlineto
          -46 -263 rlineto
          254 hlineto
          329 hlineto
          255 hlineto
          45 263 rlineto
          -254 hlineto
          148 841 rlineto
          endchar
        </CharString>
        <CharString name="Icyrillic">
          -573 88 callsubr
        </CharString>
        <CharString name="Icyrillic.1">
          -145 1077 1104 rmoveto
          45 261 rlineto
          -255 hlineto
          -328 hlineto
          -254 hlineto
          -46 -261 rlineto
          254 hlineto
          -149 -841 rlineto
          -254 hlineto
          -46 -263 rlineto
          254 hlineto
          329 hlineto
          255 hlineto
          45 263 rlineto
          -254 hlineto
          148 841 rlineto
          endchar
        </CharString>
        <CharString name="Idblgrave">
          -593 -56 callsubr
          347 1500 rmoveto
          -25 callsubr
        </CharString>
        <CharString name="Idblgrave.1">
          -165 1013 1500 rmoveto
          -178 320 rlineto
          -263 hlineto
          227 -320 rlineto
          -188 0 rmoveto
          -178 320 rlineto
          -263 hlineto
          227 -320 rlineto
          670 -396 rmoveto
          45 261 rlineto
          -255 hlineto
          -328 hlineto
          -254 hlineto
          -46 -261 rlineto
          254 hlineto
          -149 -841 rlineto
          -254 hlineto
          -46 -263 rlineto
          254 hlineto
          329 hlineto
          255 hlineto
          45 263 rlineto
          -254 hlineto
          148 841 rlineto
          endchar
        </CharString>
        <CharString name="Idieresis">
          -593 -56 callsubr
          125 14 callsubr
          endchar
        </CharString>
        <CharString name="Idieresis.1">
          -165 925 1457 rmoveto
          72 52 55 67 68 -52 55 -72 -72 -52 -55 -68 -67 52 -55 72 hvcurveto
          -390 0 rmoveto
          72 52 55 67 68 -52 55 -72 -72 -52 -55 -68 -67 52 -55 72 hvcurveto
          532 -353 rmoveto
          45 261 rlineto
          -255 hlineto
          -328 hlineto
          -254 hlineto
          -46 -261 rlineto
          254 hlineto
          -149 -841 rlineto
          -254 hlineto
          -46 -263 rlineto
          254 hlineto
          329 hlineto
          255 hlineto
          45 263 rlineto
          -254 hlineto
          148 841 rlineto
          endchar
        </CharString>
        <CharString name="Idieresisacute">
          -593 -56 callsubr
          332 1754 -19 callgsubr
          endchar
        </CharString>
        <CharString name="Idieresisacute.1">
          -165 1095 1945 rmoveto
          -262 hlineto
          -216 -191 rlineto
          217 hlineto
          -34 -174 rmoveto
          -68 52 -55 72 72 52 55 68 68 -52 55 -72 -72 -52 -55 -68 vhcurveto
          -266 -123 rmoveto
          72 52 55 68 68 -52 55 -72 -72 -52 -55 -68 -68 52 -55 72 hvcurveto
          533 -353 rmoveto
          45 261 rlineto
          -255 hlineto
          -328 hlineto
          -254 hlineto
          -46 -261 rlineto
          254 hlineto
          -149 -841 rlineto
          -254 hlineto
          -46 -263 rlineto
          254 hlineto
          329 hlineto
          255 hlineto
          45 263 rlineto
          -254 hlineto
          148 841 rlineto
          endchar
        </CharString>
        <CharString name="Idotaccent">
          -593 -56 callsubr
          311 1630 -80 callgsubr
        </CharString>
        <CharString name="Idotaccent.1">
          -165 729 1486 rmoveto
          79 63 64 80 79 -63 64 -79 -79 -63 -64 -79 -80 63 -64 79 hvcurveto
          338 -382 rmoveto
          45 261 rlineto
          -255 hlineto
          -328 hlineto
          -254 hlineto
          -46 -261 rlineto
          254 hlineto
          -149 -841 rlineto
          -254 hlineto
          -46 -263 rlineto
          254 hlineto
          329 hlineto
          255 hlineto
          45 263 rlineto
          -254 hlineto
          148 841 rlineto
          endchar
        </CharString>
        <CharString name="Idotbelow">
          -593 -56 callsubr
          -21 37 callsubr
          endchar
        </CharString>
        <CharString name="Idotbelow.1">
          -165 419 -101 rmoveto
          -82 -63 -52 -87 -88 63 -51 82 82 63 51 88 86 -62 53 -83 hvcurveto
          648 1205 rmoveto
          45 261 rlineto
          -255 hlineto
          -328 hlineto
          -254 hlineto
          -46 -261 rlineto
          254 hlineto
          -149 -841 rlineto
          -254 hlineto
          -46 -263 rlineto
          254 hlineto
          329 hlineto
          255 hlineto
          45 263 rlineto
          -254 hlineto
          148 841 rlineto
          endchar
        </CharString>
        <CharString name="Iecyrillic">
          -30 1044 -102 callsubr
          endchar
        </CharString>
        <CharString name="Igrave">
          -593 -56 callsubr
          544 1500 rmoveto
          -179 -49 callsubr
          endchar
        </CharString>
        <CharString name="Igrave.1">
          -165 868 1500 rmoveto
          -179 320 rlineto
          -263 hlineto
          227 -320 rlineto
          414 -396 rmoveto
          45 261 rlineto
          -255 hlineto
          -328 hlineto
          -254 hlineto
          -46 -261 rlineto
          254 hlineto
          -149 -841 rlineto
          -254 hlineto
          -46 -263 rlineto
          254 hlineto
          329 hlineto
          255 hlineto
          45 263 rlineto
          -254 hlineto
          148 841 rlineto
          endchar
        </CharString>
        <CharString name="Ihookabove">
          -593 -56 callsubr
          312 1703 -58 callgsubr
          endchar
        </CharString>
        <CharString name="Ihookabove.1">
          -165 739 1447 rmoveto
          120 43 79 84 106 vvcurveto
          99 -101 61 -106 -49 -35 -5 -8 -23 vhcurveto
          -20 -127 rlineto
          7 22 24 3 31 hhcurveto
          55 37 -27 -34 -43 -31 -26 -70 -34 hvcurveto
          395 -442 rmoveto
          45 261 rlineto
          -255 hlineto
          -328 hlineto
          -254 hlineto
          -46 -261 rlineto
          254 hlineto
          -149 -841 rlineto
          -254 hlineto
          -46 -263 rlineto
          254 hlineto
          329 hlineto
          255 hlineto
          45 263 rlineto
          -254 hlineto
          148 841 rlineto
          endchar
        </CharString>
        <CharString name="Iicyrillic">
          258 929 hmoveto
          -52 callgsubr
          endchar
        </CharString>
        <CharString name="Iinvertedbreve">
          -593 -56 callsubr
          771 1470 -48 callsubr
          endchar
        </CharString>
        <CharString name="Iinvertedbreve.1">
          -165 859 1470 rmoveto
          176 hlineto
          2 15 4 24 16 vvcurveto
          161 -141 96 -158 -203 -150 -113 -199 -30 vhcurveto
          177 hlineto
          92 20 74 54 86 hhcurveto
          106 37 -69 -76 hvcurveto
          208 -367 rmoveto
          45 261 rlineto
          -255 hlineto
          -328 hlineto
          -254 hlineto
          -46 -261 rlineto
          254 hlineto
          -149 -841 rlineto
          -254 hlineto
          -46 -263 rlineto
          254 hlineto
          329 hlineto
          255 hlineto
          45 263 rlineto
          -254 hlineto
          148 841 rlineto
          endchar
        </CharString>
        <CharString name="Iishortcyrillic">
          258 929 hmoveto
          -52 callgsubr
          -460 932 -82 callgsubr
          endchar
        </CharString>
        <CharString name="Imacron">
          -593 -56 callsubr
          778 1640 -42 callgsubr
        </CharString>
        <CharString name="Imacron.1">
          -165 1062 1640 rmoveto
          -652 hlineto
          -28 -146 rlineto
          652 hlineto
          33 -390 rmoveto
          45 261 rlineto
          -255 hlineto
          -328 hlineto
          -254 hlineto
          -46 -261 rlineto
          254 hlineto
          -149 -841 rlineto
          -254 hlineto
          -46 -263 rlineto
          254 hlineto
          329 hlineto
          255 hlineto
          45 263 rlineto
          -254 hlineto
          148 841 rlineto
          endchar
        </CharString>
        <CharString name="Iocyrillic">
          -30 1044 -102 callsubr
          -511 14 callsubr
          endchar
        </CharString>
        <CharString name="Iogonek">
          -593 361 -358 rmoveto
          29 165 rlineto
          -5 -15 -37 -4 -24 hhcurveto
          -62 -42 29 58 7 hvcurveto
          5 63 54 65 138 51 230 1301 rcurveline
          -329 hlineto
          -238 -1346 rlineto
          52 hlineto
          -1 -11 -63 -32 -72 -59 -10 -101 rlinecurve
          -107 -13 68 -93 164 hhcurveto
          69 68 16 10 22 hvcurveto
          endchar
        </CharString>
        <CharString name="Iogonek.1">
          -165 670 -384 rmoveto
          55 73 11 15 32 hvcurveto
          29 165 rlineto
          -4 -15 -37 -5 -24 hhcurveto
          -67 -36 33 54 6 hvcurveto
          8 75 71 64 118 40 34 199 rcurveline
          -254 hlineto
          149 841 rlineto
          255 hlineto
          45 261 76 callsubr
          -46 -261 rlineto
          254 hlineto
          -149 -841 rlineto
          -254 hlineto
          -46 -263 rlineto
          534 hlineto
          -1 -14 -65 -42 -43 -62 -7 -66 rlinecurve
          -121 -15 86 -79 147 hhcurveto
          endchar
        </CharString>
        <CharString name="Iotadieresisgreek">
          -580 -56 callsubr
          125 14 callsubr
          endchar
        </CharString>
        <CharString name="Iotadieresisgreek.1">
          -165 925 1457 rmoveto
          72 52 55 67 68 -52 55 -72 -72 -52 -55 -68 -67 52 -55 72 hvcurveto
          -390 0 rmoveto
          72 52 55 67 68 -52 55 -72 -72 -52 -55 -68 -67 52 -55 72 hvcurveto
          532 -353 rmoveto
          45 261 rlineto
          -255 hlineto
          -328 hlineto
          -254 hlineto
          -46 -261 rlineto
          254 hlineto
          -149 -841 rlineto
          -254 hlineto
          -46 -263 rlineto
          254 hlineto
          329 hlineto
          255 hlineto
          45 263 rlineto
          -254 hlineto
          148 841 rlineto
          endchar
        </CharString>
        <CharString name="Iotagreek">
          -580 -56 callsubr
          endchar
        </CharString>
        <CharString name="Iotagreek.1">
          -165 1067 1104 rmoveto
          45 261 rlineto
          -255 hlineto
          -328 hlineto
          -254 hlineto
          -46 -261 rlineto
          254 hlineto
          -149 -841 rlineto
          -254 hlineto
          -46 -263 rlineto
          254 hlineto
          329 hlineto
          255 hlineto
          45 263 rlineto
          -254 hlineto
          148 841 rlineto
          endchar
        </CharString>
        <CharString name="Iotatonosgreek">
          -133 799 -47 callsubr
          -316 968 -23 callgsubr
        </CharString>
        <CharString name="Iotatonosgreek.1">
          239 312 1365 rmoveto
          -169 -397 rlineto
          214 hlineto
          240 397 rlineto
          874 -261 rmoveto
          45 261 rlineto
          -255 hlineto
          -328 hlineto
          -254 hlineto
          -46 -261 rlineto
          254 hlineto
          -149 -841 rlineto
          -254 hlineto
          -46 -263 rlineto
          254 hlineto
          329 hlineto
          255 hlineto
          45 263 rlineto
          -254 hlineto
          148 841 rlineto
          endchar
        </CharString>
        <CharString name="Itilde">
          -593 -56 callsubr
          553 1454 -87 callgsubr
          endchar
        </CharString>
        <CharString name="Itilde.1">
          -165 907 1687 rmoveto
          -52 -2 -21 -45 -43 hhcurveto
          -67 -23 112 -147 hhcurveto
          -135 -69 -115 -112 -4 hvcurveto
          155 hlineto
          50 5 22 33 43 hhcurveto
          76 15 -104 138 hhcurveto
          128 81 106 127 3 hvcurveto
          5 -583 rmoveto
          45 261 rlineto
          -255 hlineto
          -328 hlineto
          -254 hlineto
          -46 -261 rlineto
          254 hlineto
          -149 -841 rlineto
          -254 hlineto
          -46 -263 rlineto
          254 hlineto
          329 hlineto
          255 hlineto
          45 263 rlineto
          -254 hlineto
          148 841 rlineto
          endchar
        </CharString>
        <CharString name="Itildebelow">
          -593 -56 callsubr
          220 -443 -60 callgsubr
          endchar
        </CharString>
        <CharString name="Itildebelow.1">
          -165 214 -399 rmoveto
          51 6 25 44 42 hhcurveto
          77 30 -139 137 hhcurveto
          131 105 118 160 10 hvcurveto
          -165 hlineto
          -51 -6 -24 -45 -43 hhcurveto
          -78 -32 139 -142 hhcurveto
          -141 -86 -122 -155 -12 hvcurveto
          1019 1503 rmoveto
          45 261 rlineto
          -255 hlineto
          -328 hlineto
          -254 hlineto
          -46 -261 rlineto
          254 hlineto
          -149 -841 rlineto
          -254 hlineto
          -46 -263 rlineto
          254 hlineto
          329 hlineto
          255 hlineto
          45 263 rlineto
          -254 hlineto
          148 841 rlineto
          endchar
        </CharString>
        <CharString name="J">
          -66 1178 -61 callsubr
          endchar
        </CharString>
        <CharString name="Jcircumflex">
          -66 1178 -61 callsubr
          -356 1073 -72 callgsubr
          endchar
        </CharString>
        <CharString name="Jecyrillic">
          -50 1188 -61 callsubr
          endchar
        </CharString>
        <CharString name="K">
          128 644 -62 callgsubr
          endchar
        </CharString>
        <CharString name="Kacute">
          128 644 -62 callgsubr
          154 715 -71 callgsubr
        </CharString>
        <CharString name="Kacyrillic">
          109 1477 1365 rmoveto
          -378 hlineto
          -484 -551 rlineto
          -60 hlineto
          98 551 rlineto
          -330 hlineto
          -241 -1365 rlineto
          330 hlineto
          101 570 rlineto
          59 hlineto
          305 -570 rlineto
          359 hlineto
          -360 683 rlineto
          endchar
        </CharString>
        <CharString name="Kappagreek">
          140 644 -62 callgsubr
          endchar
        </CharString>
        <CharString name="Kcaron">
          128 644 -62 callgsubr
          721 951 -82 callsubr
          endchar
        </CharString>
        <CharString name="Kcommaaccent">
          128 644 -62 callgsubr
          40 -1246 -31 callsubr
        </CharString>
        <CharString name="Kdotbelow">
          128 644 -62 callgsubr
          -143 -1025 -96 callsubr
        </CharString>
        <CharString name="Kjecyrillic">
          111 1312 1820 rmoveto
          -272 hlineto
          -292 -320 rlineto
          230 hlineto
          500 -135 rmoveto
          -378 hlineto
          -484 -551 rlineto
          -60 hlineto
          98 551 rlineto
          -330 hlineto
          -241 -1365 rlineto
          330 hlineto
          101 570 rlineto
          59 hlineto
          305 -570 rlineto
          359 hlineto
          -360 683 rlineto
          endchar
        </CharString>
        <CharString name="Klinebelow">
          128 644 -62 callgsubr
          301 -1136 -79 callsubr
        </CharString>
        <CharString name="L">
          -154 -29 callsubr
          endchar
        </CharString>
        <CharString name="Lacute">
          -154 -29 callsubr
          -594 1500 -71 callgsubr
        </CharString>
        <CharString name="Lambdagreek">
          78 -53 hmoveto
          335 hlineto
          465 1043 rlineto
          18 hlineto
          83 -1043 rlineto
          353 hlineto
          -187 -39 callsubr
          -405 hlineto
          endchar
        </CharString>
        <CharString name="Lcaron">
          -154 846 1432 rmoveto
          -94 89 callsubr
          -114 -1155 rmoveto
          -544 hlineto
          192 1088 -90 callsubr
          873 hlineto
          endchar
        </CharString>
        <CharString name="Lcircumflexbelow">
          -154 -29 callsubr
          -908 -416 -57 callgsubr
          endchar
        </CharString>
        <CharString name="Lcommaaccent">
          -154 -29 callsubr
          -458 -461 -31 callsubr
        </CharString>
        <CharString name="Ldotbelow">
          -154 -29 callsubr
          -641 37 callsubr
          endchar
        </CharString>
        <CharString name="Ldotbelowmacron">
          -154 -29 callsubr
          -641 37 callsubr
          544 1880 -42 callgsubr
        </CharString>
        <CharString name="Ljecyrillic">
          796 618 780 rmoveto
          63 315 rlineto
          344 hlineto
          -193 -1095 rlineto
          554 hlineto
          334 188 171 245 44 hvcurveto
          8 38 3 39 38 vvcurveto
          253 -170 152 -276 vhcurveto
          -192 hlineto
          76 429 rlineto
          -968 hlineto
          -102 -532 rlineto
          -435 -85 -58 -124 -121 hhcurveto
          -16 -20 4 5 -13 hvcurveto
          -49 -283 rlineto
          -10 20 39 -8 51 hhcurveto
          324 105 257 541 110 hvcurveto
          820 -90 rmoveto
          100 96 -49 -127 -22 -3 -25 -5 -20 hvcurveto
          -114 -22 -95 -68 -139 hhcurveto
          -164 hlineto
          76 425 rlineto
          endchar
        </CharString>
        <CharString name="Llinebelow">
          -154 -29 callsubr
          -197 -351 -79 callsubr
        </CharString>
        <CharString name="Lslash">
          -106 988 hmoveto
          48 278 rlineto
          -548 hlineto
          72 405 315 160 47 273 -314 -161 73 410 rlineto
          -329 hlineto
          -105 -596 -127 -65 -47 -271 127 65 -89 -498 rlineto
          endchar
        </CharString>
        <CharString name="M">
          455 372 -66 callsubr
          endchar
        </CharString>
        <CharString name="Macute">
          455 372 -66 callsubr
          794 1500 -71 callgsubr
        </CharString>
        <CharString name="Mdotaccent">
          455 372 -66 callsubr
          824 1630 -80 callgsubr
        </CharString>
        <CharString name="Mdotbelow">
          455 372 -66 callsubr
          493 37 callsubr
          endchar
        </CharString>
        <CharString name="Mugreek">
          482 372 -66 callsubr
          endchar
        </CharString>
        <CharString name="N">
          207 1203 -84 callgsubr
          endchar
        </CharString>
        <CharString name="Nacute">
          207 1203 -84 callgsubr
          -177 1500 -71 callgsubr
        </CharString>
        <CharString name="Ncaron">
          207 1203 -84 callgsubr
          390 1736 -82 callsubr
          endchar
        </CharString>
        <CharString name="Ncircumflexbelow">
          207 1203 -84 callgsubr
          -745 -416 -57 callgsubr
          endchar
        </CharString>
        <CharString name="Ncommaaccent">
          207 1203 -84 callgsubr
          -295 -461 -31 callsubr
        </CharString>
        <CharString name="Ndotaccent">
          207 1203 -84 callgsubr
          -147 1630 -80 callgsubr
        </CharString>
        <CharString name="Ndotbelow">
          207 1203 -84 callgsubr
          -478 37 callsubr
          endchar
        </CharString>
        <CharString name="Ngrave">
          207 1203 -84 callgsubr
          86 1500 rmoveto
          -179 -49 callsubr
          endchar
        </CharString>
        <CharString name="Njecyrillic">
          880 914 hmoveto
          550 hlineto
          319 189 161 214 55 hvcurveto
          13 42 7 44 38 vvcurveto
          220 -157 152 -286 vhcurveto
          -208 hlineto
          88 494 rlineto
          -329 hlineto
          -88 -494 rlineto
          -494 hlineto
          87 494 64 callgsubr
          330 hlineto
          106 601 rlineto
          494 hlineto
          263 -346 rmoveto
          65 366 rlineto
          166 hlineto
          124 73 -52 -94 -13 -2 -17 -2 -13 hvcurveto
          -110 -15 -95 -67 -144 hhcurveto
          endchar
        </CharString>
        <CharString name="Nlinebelow">
          207 1203 -84 callgsubr
          -34 -351 -79 callsubr
        </CharString>
        <CharString name="Ntilde">
          207 1203 -84 callgsubr
          95 1454 -87 callgsubr
          endchar
        </CharString>
        <CharString name="Nugreek">
          220 1203 -84 callgsubr
          endchar
        </CharString>
        <CharString name="NumberSignCyrillic">
          1010 385 hmoveto
          174 811 rlineto
          13 hlineto
          372 -811 rlineto
          258 hlineto
          290 -39 callsubr
          -306 hlineto
          -172 -803 rlineto
          -13 hlineto
          -371 803 rlineto
          -261 hlineto
          -290 83 callgsubr
          1978 384 rmoveto
          46 221 rlineto
          -597 hlineto
          -46 -221 rlineto
          559 681 rmoveto
          -99 -54 -66 -81 -69 -40 48 82 98 54 66 80 69 41 -47 -82 vhcurveto
          224 8 rmoveto
          193 -122 120 -197 -220 -153 -150 -217 -193 125 -119 201 215 151 152 214 vhcurveto
          endchar
        </CharString>
        <CharString name="O">
          -105 callsubr
          endchar
        </CharString>
        <CharString name="OE">
          761 131 664 rmoveto
          -9 -53 -6 -70 -56 vvcurveto
          -333 203 -176 280 153 128 64 112 79 vhcurveto
          15 hlineto
          -29 -152 rlineto
          854 hlineto
          45 264 rlineto
          -586 hlineto
          54 301 rlineto
          550 hlineto
          42 243 rlineto
          -550 hlineto
          52 294 rlineto
          587 hlineto
          46 263 rlineto
          -860 hlineto
          -30 -173 rlineto
          -15 hlineto
          109 -60 -126 88 -204 hhcurveto
          -297 -219 -188 -344 -62 hvcurveto
          325 -61 rmoveto
          219 40 106 99 144 hhcurveto
          162 86 -122 -155 -28 -3 -48 -6 -36 hvcurveto
          -27 -153 rlineto
          -220 -38 -101 -104 -155 hhcurveto
          -157 -90 109 165 37 5 51 7 39 hvcurveto
          endchar
        </CharString>
        <CharString name="Oacute">
          -105 callsubr
          565 643 -71 callgsubr
        </CharString>
        <CharString name="Obreve">
          -105 callsubr
          418 919 -68 callgsubr
          endchar
        </CharString>
        <CharString name="Ocaron">
          -105 callsubr
          1132 879 -82 callsubr
          endchar
        </CharString>
        <CharString name="Ocircumflex">
          -105 callsubr
          335 628 -72 callgsubr
          endchar
        </CharString>
        <CharString name="Ocircumflexacute">
          -105 callsubr
          328 639 -44 callgsubr
          361 -67 rmoveto
          198 hlineto
          286 248 rlineto
          -243 hlineto
          endchar
        </CharString>
        <CharString name="Ocircumflexdotbelow">
          -105 callsubr
          335 628 -72 callgsubr
          -353 -1971 -96 callsubr
        </CharString>
        <CharString name="Ocircumflexgrave">
          -105 callsubr
          328 639 -44 callgsubr
          638 -68 rmoveto
          -177 249 rlineto
          -223 hlineto
          203 -249 rlineto
          endchar
        </CharString>
        <CharString name="Ocircumflexhookabove">
          -105 callsubr
          328 639 -44 callgsubr
          285 91 rmoveto
          3 12 14 2 26 hhcurveto
          53 32 -23 -39 -26 -17 -22 -30 -15 hvcurveto
          72 -82 rlineto
          62 28 60 60 78 vvcurveto
          108 -82 39 -115 -33 -33 -5 -5 -15 vhcurveto
          endchar
        </CharString>
        <CharString name="Ocircumflextilde">
          -105 callsubr
          366 639 -36 callsubr
        </CharString>
        <CharString name="Ocyrillic">
          189 501 801 -107 callgsubr
          endchar
        </CharString>
        <CharString name="Odblgrave">
          -105 callsubr
          631 643 rmoveto
          -25 callsubr
        </CharString>
        <CharString name="Odieresis">
          -105 callsubr
          409 722 -101 callgsubr
          endchar
        </CharString>
        <CharString name="Odieresismacron">
          -105 callsubr
          1101 1063 -20 callsubr
        </CharString>
        <CharString name="Odotaccent">
          -105 callsubr
          595 773 -80 callgsubr
        </CharString>
        <CharString name="Odotaccentmacron">
          -105 callsubr
          585 709 25 callsubr
        </CharString>
        <CharString name="Odotbelow">
          -105 callsubr
          266 -1097 -96 callsubr
        </CharString>
        <CharString name="Ograve">
          -105 callsubr
          828 643 rmoveto
          -179 -49 callsubr
          endchar
        </CharString>
        <CharString name="Ohookabove">
          -105 callsubr
          596 846 -58 callgsubr
          endchar
        </CharString>
        <CharString name="Ohorn">
          -93 callgsubr
          endchar
        </CharString>
        <CharString name="Ohornacute">
          -93 callgsubr
          -582 991 -71 callgsubr
        </CharString>
        <CharString name="Ohorndotbelow">
          -93 callgsubr
          -881 -749 -96 callsubr
        </CharString>
        <CharString name="Ohorngrave">
          -93 callgsubr
          -319 991 rmoveto
          -179 -49 callsubr
          endchar
        </CharString>
        <CharString name="Ohornhookabove">
          -93 callgsubr
          -551 1194 -58 callgsubr
          endchar
        </CharString>
        <CharString name="Ohorntilde">
          -93 callgsubr
          -310 945 -87 callgsubr
          endchar
        </CharString>
        <CharString name="Ohungarumlaut">
          -105 callsubr
          378 643 12 callgsubr
        </CharString>
        <CharString name="Oinvertedbreve">
          -105 callsubr
          1055 613 -48 callsubr
          endchar
        </CharString>
        <CharString name="Omacron">
          -105 callsubr
          1062 783 -42 callgsubr
        </CharString>
        <CharString name="Omacronacute">
          -105 callsubr
          606 892 37 callgsubr
        </CharString>
        <CharString name="Omacrongrave">
          -105 callsubr
          1062 783 63 callsubr
        </CharString>
        <CharString name="Omegagreek">
          233 730 -11 callsubr
          endchar
        </CharString>
        <CharString name="Omegatonosgreek">
          536 1032 -11 callsubr
          -935 644 -23 callgsubr
        </CharString>
        <CharString name="Omicrongreek">
          -105 callsubr
          endchar
        </CharString>
        <CharString name="Omicrontonosgreek">
          503 826 801 -107 callgsubr
          -347 111 -23 callgsubr
        </CharString>
        <CharString name="Oogonek">
          -20 callgsubr
          endchar
        </CharString>
        <CharString name="Oogonekmacron">
          -20 callgsubr
          764 986 -42 callgsubr
        </CharString>
        <CharString name="Oslash">
          -27 callsubr
          endchar
        </CharString>
        <CharString name="Oslashacute">
          -27 callsubr
          -253 480 -71 callgsubr
        </CharString>
        <CharString name="Otilde">
          -105 callsubr
          837 597 -87 callgsubr
          endchar
        </CharString>
        <CharString name="Otildeacute">
          -105 callsubr
          627 892 rmoveto
          194 hlineto
          273 191 rlineto
          -242 hlineto
          -17 -486 -30 callsubr
        </CharString>
        <CharString name="Otildedieresis">
          -105 callsubr
          830 554 -87 callgsubr
          -382 406 -101 callgsubr
          endchar
        </CharString>
        <CharString name="Otildemacron">
          -105 callsubr
          1094 1063 30 callsubr
          -232 -319 -30 callsubr
        </CharString>
        <CharString name="P">
          28 403 hmoveto
          -74 callsubr
          endchar
        </CharString>
        <CharString name="Pacute">
          28 403 hmoveto
          -74 callsubr
          39 381 -71 callgsubr
        </CharString>
        <CharString name="Pdotaccent">
          28 403 hmoveto
          -74 callsubr
          69 511 -80 callgsubr
        </CharString>
        <CharString name="Pecyrillic">
          246 1232 hmoveto
          59 callgsubr
        </CharString>
        <CharString name="Phigreek">
          486 1675 769 rmoveto
          281 -181 213 -333 52 vhcurveto
          24 137 rlineto
          -300 hlineto
          -24 -134 rlineto
          -412 -238 -197 -317 -63 hvcurveto
          -22 -115 -6 -53 -51 vvcurveto
          -284 177 -216 338 -53 vhcurveto
          -23 -128 rlineto
          300 hlineto
          23 125 rlineto
          405 252 193 354 61 hvcurveto
          18 103 4 53 37 vvcurveto
          -849 303 rmoveto
          -140 -794 rlineto
          -152 25 -89 115 169 vvcurveto
          28 3 36 15 92 vhcurveto
          200 38 133 129 192 hhcurveto
          144 -796 rmoveto
          141 793 rlineto
          149 -25 91 -105 -178 vvcurveto
          -27 -2 -29 -10 -65 vhcurveto
          -36 -230 -135 -132 -198 -2 rrcurveto
          endchar
        </CharString>
        <CharString name="Pigreek">
          219 403 hmoveto
          194 1094 rlineto
          482 hlineto
          -193 -1094 54 callgsubr
          -1141 -98 callgsubr
          endchar
        </CharString>
        <CharString name="Psigreek">
          373 567 hmoveto
          309 hlineto
          49 275 rlineto
          8 8 0 8 hhcurveto
          334 3 182 159 56 321 107 607 rcurveline
          -309 hlineto
          -103 -587 -31 -169 -66 -72 -149 -1 rlinecurve
          147 829 rlineto
          -309 hlineto
          -146 -827 rlineto
          -107 14 -57 49 117 vvcurveto
          22 3 29 5 28 vhcurveto
          99 568 rlineto
          -308 hlineto
          -94 -534 rlineto
          -8 -45 -5 -41 -39 vvcurveto
          -255 154 -138 272 -37 vhcurveto
          endchar
        </CharString>
        <CharString name="Q">
          183 134 677 rmoveto
          -11 -59 -4 -54 -52 vvcurveto
          -347 240 -189 324 71 62 8 17 59 vhcurveto
          66 -109 rlineto
          310 hlineto
          -146 246 102 91 69 131 28 163 rlinecurve
          31 166 rlineto
          10 58 5 51 45 vvcurveto
          351 -239 195 -331 -333 -224 -208 -338 -60 vhcurveto
          707 -399 rmoveto
          -259 hlineto
          127 -212 rlineto
          -2 -13 -13 -1 -15 hhcurveto
          -152 -101 99 179 35 3 53 9 47 hvcurveto
          30 162 rlineto
          215 40 101 105 149 hhcurveto
          148 100 -98 -166 -22 -2 -59 -8 -45 hvcurveto
          -31 -170 -13 -74 -27 -68 -34 -42 rlinecurve
          endchar
        </CharString>
        <CharString name="R">
          -95 callgsubr
          endchar
        </CharString>
        <CharString name="Racute">
          -95 callgsubr
          40 389 -71 callgsubr
        </CharString>
        <CharString name="Rcaron">
          -95 callgsubr
          607 625 -82 callsubr
          endchar
        </CharString>
        <CharString name="Rcommaaccent">
          -95 callgsubr
          -76 -1572 -31 callsubr
        </CharString>
        <CharString name="Rdblgrave">
          -95 callgsubr
          106 389 rmoveto
          -25 callsubr
        </CharString>
        <CharString name="Rdotaccent">
          -95 callgsubr
          70 519 -80 callgsubr
        </CharString>
        <CharString name="Rdotbelow">
          -95 callgsubr
          -259 -1351 -96 callsubr
        </CharString>
        <CharString name="Rdotbelowmacron">
          -95 callgsubr
          -259 -1351 -99 callsubr
          796 1880 -42 callgsubr
        </CharString>
        <CharString name="Rhogreek">
          47 403 hmoveto
          -74 callsubr
          endchar
        </CharString>
        <CharString name="Rinvertedbreve">
          -95 callgsubr
          530 359 -48 callsubr
          endchar
        </CharString>
        <CharString name="Rlinebelow">
          -95 callgsubr
          185 -1462 -79 callsubr
        </CharString>
        <CharString name="S">
          43 75 416 rmoveto
          -102 callgsubr
          endchar
        </CharString>
        <CharString name="Sacute">
          43 75 416 rmoveto
          -102 callgsubr
          289 1084 -71 callgsubr
        </CharString>
        <CharString name="Sacutedotaccent">
          43 75 416 rmoveto
          -102 callgsubr
          406 1080 rmoveto
          247 hlineto
          382 320 rlineto
          -294 hlineto
          -620 -137 -80 callgsubr
        </CharString>
        <CharString name="Scaron">
          43 75 416 rmoveto
          -102 callgsubr
          856 1320 -82 callsubr
          endchar
        </CharString>
        <CharString name="Scarondotaccent">
          43 75 416 rmoveto
          -102 callgsubr
          849 1287 41 callsubr
        </CharString>
        <CharString name="Scedilla">
          43 514 79 callsubr
          22 87 rlineto
          0 vlineto
          290 17 224 157 275 vvcurveto
          228 -158 84 -159 51 vhcurveto
          -132 41 rlineto
          -115 37 -77 45 80 vvcurveto
          90 89 54 109 108 102 -54 -104 -8 0 -6 -1 -2 vhcurveto
          296 hlineto
          2 6 2 18 14 vvcurveto
          220 -203 169 -304 -298 -239 -155 -285 -222 156 -100 172 -55 vhcurveto
          120 -40 rlineto
          108 -35 87 -32 -89 vvcurveto
          -103 -111 -47 -107 -134 -105 71 99 8 0 6 1 6 vhcurveto
          -307 hlineto
          -3 -14 -1 -13 -17 vvcurveto
          -223 184 -131 227 -33 vhcurveto
          -33 -146 52 callsubr
        </CharString>
        <CharString name="Scircumflex">
          43 75 416 rmoveto
          -102 callgsubr
          59 1069 -72 callgsubr
          endchar
        </CharString>
        <CharString name="Scommaaccent">
          43 75 416 rmoveto
          -102 callgsubr
          172 -877 -31 callsubr
        </CharString>
        <CharString name="Sdotaccent">
          43 75 416 rmoveto
          -102 callgsubr
          319 1214 -80 callgsubr
        </CharString>
        <CharString name="Sdotbelow">
          43 75 416 rmoveto
          -102 callgsubr
          -11 -656 -96 callsubr
        </CharString>
        <CharString name="Sdotbelowdotaccent">
          43 75 416 rmoveto
          -102 callgsubr
          -11 -656 -99 callsubr
          330 1870 -80 callgsubr
        </CharString>
        <CharString name="Shacyrillic">
          804 84 hmoveto
          1706 -29 callgsubr
          -329 hlineto
          -194 -1094 rlineto
          -360 hlineto
          194 1094 rlineto
          -329 hlineto
          -194 -1094 rlineto
          -359 hlineto
          194 1094 rlineto
          -329 hlineto
          endchar
        </CharString>
        <CharString name="Shchacyrillic">
          859 1907 -286 rmoveto
          98 557 rlineto
          -167 hlineto
          193 1094 rlineto
          -329 hlineto
          -194 -1094 rlineto
          -359 hlineto
          194 1094 110 callgsubr
          -193 -1094 rlineto
          -360 hlineto
          194 1094 64 callgsubr
          1582 hlineto
          -50 -286 rlineto
          endchar
        </CharString>
        <CharString name="Sigmagreek">
          -3 1061 hmoveto
          46 266 rlineto
          -598 hlineto
          4 17 350 379 7 38 -214 383 3 16 rlineto
          578 hlineto
          47 266 rlineto
          -1000 hlineto
          -37 -210 270 -466 -445 -495 -34 -194 rlineto
          endchar
        </CharString>
        <CharString name="Softsigncyrillic">
          49 690 -50 callgsubr
          endchar
        </CharString>
        <CharString name="T">
          -102 649 -35 callgsubr
          endchar
        </CharString>
        <CharString name="Taugreek">
          -69 649 -35 callgsubr
          endchar
        </CharString>
        <CharString name="Tbar">
          -102 974 567 rmoveto
          34 194 rlineto
          -225 hlineto
          59 331 rlineto
          365 hlineto
          47 273 rlineto
          -1059 hlineto
          -47 -273 rlineto
          366 hlineto
          -60 -331 rlineto
          -227 hlineto
          -35 -194 rlineto
          228 hlineto
          -101 -567 rlineto
          329 hlineto
          101 567 rlineto
          endchar
        </CharString>
        <CharString name="Tcaron">
          -102 649 -35 callgsubr
          852 1736 -82 callsubr
          endchar
        </CharString>
        <CharString name="Tcedilla">
          -102 406 hmoveto
          -37 -161 -11 -73 rlineto
          55 106 callgsubr
          -2 0 -4 -1 -2 hvcurveto
          -44 -4 -47 -7 -50 hhcurveto
          -32 64 callsubr
          22 60 -12 69 hhcurveto
          158 105 95 callsubr
          28 110 rlineto
          70 hlineto
          193 1092 130 callsubr
          47 273 rlineto
          -1059 hlineto
          -47 -273 rlineto
          372 hlineto
          -195 -1092 rlineto
          endchar
        </CharString>
        <CharString name="Tcircumflexbelow">
          -102 649 -35 callgsubr
          -283 -416 -57 callgsubr
          endchar
        </CharString>
        <CharString name="Tcommaaccent">
          -102 649 -35 callgsubr
          167 -461 -31 callsubr
        </CharString>
        <CharString name="Tdotaccent">
          -102 649 -35 callgsubr
          315 1630 -80 callgsubr
        </CharString>
        <CharString name="Tdotbelow">
          -102 649 -35 callgsubr
          -16 37 callsubr
          endchar
        </CharString>
        <CharString name="Tecyrillic">
          -89 656 -35 callgsubr
          endchar
        </CharString>
        <CharString name="Thetagreek">
          235 695 -25 rmoveto
          426 198 212 341 63 hvcurveto
          30 160 13 73 5 70 -4 57 rlinecurve
          334 -16 -248 167 -328 hhcurveto
          -426 -189 -242 -320 -58 hvcurveto
          -28 -159 rlineto
          -11 -56 -3 -56 -52 vvcurveto
          -325 1 225 -204 350 hhcurveto
          32 277 rmoveto
          -171 -105 87 184 1 hvcurveto
          41 4 37 7 40 vhcurveto
          28 157 rlineto
          242 44 102 79 183 hhcurveto
          175 95 -95 -159 4 hvcurveto
          2 -32 -3 -53 -8 -47 -25 -141 rcurveline
          -246 -43 -89 -94 -201 hhcurveto
          219 304 rmoveto
          45 256 rlineto
          -390 hlineto
          -45 -256 rlineto
          endchar
        </CharString>
        <CharString name="Thorn">
          41 314 -14 callsubr
          29 callgsubr
          328 hlineto
          41 231 rlineto
          221 hlineto
          335 184 169 243 44 hvcurveto
          7 38 4 36 38 vvcurveto
          249 -163 149 -281 vhcurveto
          -190 hlineto
          38 212 rlineto
          69 -467 rmoveto
          109 85 -49 -124 -21 -3 -24 -5 -19 hvcurveto
          -106 -23 -77 -73 -153 hhcurveto
          -158 hlineto
          74 416 rlineto
          endchar
        </CharString>
        <CharString name="Tlinebelow">
          -102 649 -35 callgsubr
          428 -351 -79 callsubr
        </CharString>
        <CharString name="Tsecyrillic">
          304 1352 -286 rmoveto
          98 557 rlineto
          -167 hlineto
          193 1094 125 callsubr
          -193 -1094 rlineto
          -494 hlineto
          193 1094 64 callgsubr
          1027 hlineto
          -50 -286 rlineto
          endchar
        </CharString>
        <CharString name="Tshecyrillic">
          412 809 774 rmoveto
          -14 hlineto
          57 319 rlineto
          361 hlineto
          48 272 rlineto
          -1059 hlineto
          -48 -272 rlineto
          369 102 callsubr
          90 512 rlineto
          41 55 90 30 80 hhcurveto
          147 57 -83 -156 -28 hvcurveto
          -60 -344 rlineto
          328 hlineto
          62 346 rlineto
          316 55 -134 186 -308 hhcurveto
          -100 -116 -32 -42 -68 hvcurveto
          endchar
        </CharString>
        <CharString name="U">
          -104 callsubr
          endchar
        </CharString>
        <CharString name="Uacute">
          -104 callsubr
          254 950 -71 callgsubr
        </CharString>
        <CharString name="Ubreve">
          -104 callsubr
          107 1226 -68 callgsubr
          endchar
        </CharString>
        <CharString name="Ucaron">
          -104 callsubr
          821 1186 -82 callsubr
          endchar
        </CharString>
        <CharString name="Ucircumflex">
          -104 callsubr
          24 935 -72 callgsubr
          endchar
        </CharString>
        <CharString name="Ucircumflexbelow">
          -104 callsubr
          -315 -966 -57 callgsubr
          endchar
        </CharString>
        <CharString name="Ucyrillic">
          15 1063 1365 rmoveto
          -355 -659 rlineto
          -15 hlineto
          -174 659 rlineto
          -359 hlineto
          328 -1004 rlineto
          -76 -65 -54 -33 -76 hhcurveto
          -56 -38 10 2 -6 hvcurveto
          -44 -264 rlineto
          -2 6 45 -16 83 hhcurveto
          278 124 148 266 155 hvcurveto
          567 969 rlineto
          endchar
        </CharString>
        <CharString name="Udblgrave">
          -104 callsubr
          320 950 rmoveto
          -25 callsubr
        </CharString>
        <CharString name="Udieresis">
          -104 callsubr
          98 1029 -101 callgsubr
          endchar
        </CharString>
        <CharString name="Udieresisacute">
          -104 callsubr
          305 1204 -19 callgsubr
          endchar
        </CharString>
        <CharString name="Udieresisbelow">
          -104 callsubr
          -115 -930 -100 callgsubr
        </CharString>
        <CharString name="Udieresiscaron">
          -104 callsubr
          843 1395 22 callsubr
        </CharString>
        <CharString name="Udieresisgrave">
          -104 callsubr
          126 1395 rmoveto
          233 -191 rlineto
          207 hlineto
          -185 191 rlineto
          -283 -366 -101 callgsubr
          endchar
        </CharString>
        <CharString name="Udieresismacron">
          -104 callsubr
          790 1370 -20 callsubr
        </CharString>
        <CharString name="Udotbelow">
          -104 callsubr
          -48 -790 -96 callsubr
        </CharString>
        <CharString name="Ugrave">
          -104 callsubr
          517 950 rmoveto
          -179 -49 callsubr
          endchar
        </CharString>
        <CharString name="Uhookabove">
          -104 callsubr
          285 1153 -58 callgsubr
          endchar
        </CharString>
        <CharString name="Uhorn">
          -84 callsubr
          endchar
        </CharString>
        <CharString name="Uhornacute">
          -84 callsubr
          54 1522 -71 callgsubr
        </CharString>
        <CharString name="Uhorndotbelow">
          -84 callsubr
          -248 -218 -96 callsubr
        </CharString>
        <CharString name="Uhorngrave">
          -84 callsubr
          317 1522 rmoveto
          -179 -49 callsubr
          endchar
        </CharString>
        <CharString name="Uhornhookabove">
          -84 callsubr
          85 1725 -58 callgsubr
          endchar
        </CharString>
        <CharString name="Uhorntilde">
          -84 callsubr
          326 1476 -87 callgsubr
          endchar
        </CharString>
        <CharString name="Uhungarumlaut">
          -104 callsubr
          67 950 12 callgsubr
        </CharString>
        <CharString name="Uinvertedbreve">
          -104 callsubr
          744 920 -48 callsubr
          endchar
        </CharString>
        <CharString name="Umacron">
          -104 callsubr
          751 1090 -42 callgsubr
        </CharString>
        <CharString name="Umacrondieresis">
          -104 callsubr
          747 1064 36 callgsubr
        </CharString>
        <CharString name="Uogonek">
          185 1030 67 rmoveto
          110 90 92 96 29 161 166 951 rcurveline
          -332 hlineto
          -154 -872 rlineto
          -163 -29 -92 -68 -125 hhcurveto
          -139 -87 84 129 23 3 32 4 20 hvcurveto
          143 815 rlineto
          -331 hlineto
          -144 -825 rlineto
          -6 -33 -4 -48 -36 vvcurveto
          -281 224 -161 245 62 68 11 22 50 vhcurveto
          -1 -18 -69 -47 -39 -58 -11 -67 rlinecurve
          -21 -122 81 -90 160 -3 70 -1 66 16 23 6 30 177 rcurveline
          -6 -20 -34 -3 -21 hhcurveto
          -69 -45 28 70 12 hvcurveto
          11 68 58 46 66 57 rrcurveto
          endchar
        </CharString>
        <CharString name="Upsilondieresisgreek">
          -3 786 479 -81 callsubr
          -208 14 callsubr
          endchar
        </CharString>
        <CharString name="Upsilongreek">
          -3 786 479 -81 callsubr
          endchar
        </CharString>
        <CharString name="Upsilontonosgreek">
          542 1330 479 -81 callsubr
          -1092 968 -23 callgsubr
        </CharString>
        <CharString name="Uring">
          -104 callsubr
          434 1039 4 callsubr
        </CharString>
        <CharString name="Ushortcyrillic">
          15 1019 1770 rmoveto
          -90 -16 -60 -57 -114 hhcurveto
          -109 -46 57 90 16 hvcurveto
          -179 hlineto
          -186 -32 121 -121 202 hhcurveto
          221 146 118 189 29 hvcurveto
          -135 -405 rmoveto
          -355 -659 rlineto
          -15 hlineto
          -174 659 rlineto
          -359 hlineto
          328 -1004 rlineto
          -76 -65 -54 -33 -76 hhcurveto
          -56 -38 10 2 -6 hvcurveto
          -44 -264 rlineto
          -2 6 45 -16 83 hhcurveto
          278 124 148 266 155 hvcurveto
          567 969 rlineto
          endchar
        </CharString>
        <CharString name="Utilde">
          -104 callsubr
          526 904 -87 callgsubr
          endchar
        </CharString>
        <CharString name="Utildeacute">
          -104 callsubr
          316 1199 rmoveto
          194 hlineto
          273 191 rlineto
          -242 hlineto
          -17 -486 -30 callsubr
        </CharString>
        <CharString name="Utildebelow">
          -104 callsubr
          193 -993 -60 callgsubr
          endchar
        </CharString>
        <CharString name="V">
          26 callsubr
          endchar
        </CharString>
        <CharString name="Vdotbelow">
          26 callsubr
          17 37 callsubr
          endchar
        </CharString>
        <CharString name="Vecyrillic">
          122 84 -77 callgsubr
          endchar
        </CharString>
        <CharString name="Vtilde">
          26 callsubr
          588 1454 -87 callgsubr
          endchar
        </CharString>
        <CharString name="W">
          623 610 -69 callsubr
          endchar
        </CharString>
        <CharString name="Wacute">
          623 610 -69 callsubr
          669 1500 -71 callgsubr
        </CharString>
        <CharString name="Wcircumflex">
          623 610 -69 callsubr
          439 68 callgsubr
          endchar
        </CharString>
        <CharString name="Wdieresis">
          623 610 -69 callsubr
          513 14 callsubr
          endchar
        </CharString>
        <CharString name="Wdotaccent">
          623 610 -69 callsubr
          699 1630 -80 callgsubr
        </CharString>
        <CharString name="Wdotbelow">
          623 610 -69 callsubr
          369 37 callsubr
          endchar
        </CharString>
        <CharString name="Wgrave">
          623 610 -69 callsubr
          932 1500 rmoveto
          -179 -49 callsubr
          endchar
        </CharString>
        <CharString name="X">
          74 1073 1365 -53 callgsubr
          endchar
        </CharString>
        <CharString name="Xacyrillic">
          94 1083 1365 -53 callgsubr
          endchar
        </CharString>
        <CharString name="Xdieresis">
          74 1073 1365 -53 callgsubr
          -916 214 -101 callgsubr
          endchar
        </CharString>
        <CharString name="Xdotaccent">
          74 1073 1365 -53 callgsubr
          -730 265 -80 callgsubr
        </CharString>
        <CharString name="Xigreek">
          -13 227 1092 rmoveto
          991 hlineto
          48 273 rlineto
          -991 hlineto
          -56 -805 rmoveto
          817 hlineto
          45 251 rlineto
          -818 hlineto
          -230 -811 rmoveto
          991 hlineto
          48 272 rlineto
          -991 hlineto
          endchar
        </CharString>
        <CharString name="Y">
          -3 786 479 -81 callsubr
          endchar
        </CharString>
        <CharString name="Yacute">
          -3 786 479 -81 callsubr
          -52 1500 -71 callgsubr
        </CharString>
        <CharString name="Ycircumflex">
          -3 786 479 -81 callsubr
          -282 68 callgsubr
          endchar
        </CharString>
        <CharString name="Ydieresis">
          -3 786 479 -81 callsubr
          -208 14 callsubr
          endchar
        </CharString>
        <CharString name="Ydotaccent">
          -3 786 479 -81 callsubr
          -22 1630 -80 callgsubr
        </CharString>
        <CharString name="Ydotbelow">
          -3 786 479 -81 callsubr
          -353 37 callsubr
          endchar
        </CharString>
        <CharString name="Yericyrillic">
          -30 callgsubr
          endchar
        </CharString>
        <CharString name="Ygrave">
          -3 786 479 -81 callsubr
          211 1500 rmoveto
          -179 -49 callsubr
          endchar
        </CharString>
        <CharString name="Yhookabove">
          -3 786 479 -81 callsubr
          -21 1703 -58 callgsubr
          endchar
        </CharString>
        <CharString name="Yicyrillic">
          -574 412 -47 callsubr
          125 14 callsubr
          endchar
        </CharString>
        <CharString name="Yicyrillic.1">
          -145 935 1457 rmoveto
          72 52 55 67 68 -52 55 -72 -72 -52 -55 -68 -67 52 -55 72 hvcurveto
          -390 0 rmoveto
          72 52 55 67 68 -52 55 -72 -72 -52 -55 -68 -67 52 -55 72 hvcurveto
          532 -353 rmoveto
          45 261 rlineto
          -255 hlineto
          -328 hlineto
          -254 hlineto
          -46 -261 rlineto
          254 hlineto
          -149 -841 rlineto
          -254 hlineto
          -46 -263 rlineto
          254 hlineto
          329 hlineto
          255 hlineto
          45 263 rlineto
          -254 hlineto
          148 841 rlineto
          endchar
        </CharString>
        <CharString name="Ymacron">
          -3 786 479 -81 callsubr
          445 1640 -42 callgsubr
        </CharString>
        <CharString name="Ytilde">
          -3 786 479 -81 callsubr
          220 1454 -87 callgsubr
          endchar
        </CharString>
        <CharString name="Z">
          6 40 hmoveto
          -58 callsubr
          endchar
        </CharString>
        <CharString name="Zacute">
          6 40 hmoveto
          -58 callsubr
          592 1283 -71 callgsubr
        </CharString>
        <CharString name="Zcaron">
          6 40 hmoveto
          -58 callsubr
          1159 1519 -82 callsubr
          endchar
        </CharString>
        <CharString name="Zcircumflex">
          6 40 hmoveto
          -58 callsubr
          362 1268 -72 callgsubr
          endchar
        </CharString>
        <CharString name="Zdotaccent">
          6 40 hmoveto
          -58 callsubr
          622 1413 -80 callgsubr
        </CharString>
        <CharString name="Zdotbelow">
          6 40 hmoveto
          -58 callsubr
          293 -457 -96 callsubr
        </CharString>
        <CharString name="Zecyrillic">
          12 462 578 -76 callsubr
          endchar
        </CharString>
        <CharString name="Zetagreek">
          21 40 hmoveto
          -58 callsubr
          endchar
        </CharString>
        <CharString name="Zhecyrillic">
          749 2119 1365 rmoveto
          -373 hlineto
          -477 -551 rlineto
          -62 hlineto
          98 551 rlineto
          -316 hlineto
          -98 -551 rlineto
          -62 hlineto
          -292 551 rlineto
          -351 hlineto
          350 -630 -598 -735 rlineto
          385 hlineto
          464 570 rlineto
          62 hlineto
          -101 -570 rlineto
          316 hlineto
          101 570 rlineto
          62 hlineto
          276 -570 rlineto
          357 hlineto
          -328 685 rlineto
          endchar
        </CharString>
        <CharString name="Zlinebelow">
          6 40 hmoveto
          -58 callsubr
          737 -568 -79 callsubr
        </CharString>
        <CharString name="a">
          -83 374 -107 callsubr
          endchar
        </CharString>
        <CharString name="a.1">
          -105 callgsubr
          endchar
        </CharString>
        <CharString name="aacute">
          -83 374 -107 callsubr
          186 908 -73 callgsubr
        </CharString>
        <CharString name="aacute.1">
          -105 callgsubr
          12 156 -73 callgsubr
        </CharString>
        <CharString name="abreve">
          -83 374 -107 callsubr
          52 1211 -77 callsubr
          endchar
        </CharString>
        <CharString name="abreve.1">
          -105 callgsubr
          -92 459 -77 callsubr
          endchar
        </CharString>
        <CharString name="abreveacute">
          -83 374 -107 callsubr
          35 1132 -81 callgsubr
          217 101 rmoveto
          196 hlineto
          326 321 rlineto
          -252 hlineto
          endchar
        </CharString>
        <CharString name="abreveacute.1">
          -105 callgsubr
          -109 377 -81 callgsubr
          217 101 rmoveto
          196 hlineto
          326 321 rlineto
          -252 hlineto
          endchar
        </CharString>
        <CharString name="abrevedotbelow">
          -83 374 -107 callsubr
          52 1212 -77 callsubr
          -314 -1780 -96 callsubr
        </CharString>
        <CharString name="abrevedotbelow.1">
          -105 callgsubr
          -92 459 -77 callsubr
          -335 -1779 -96 callsubr
        </CharString>
        <CharString name="abrevegrave">
          -83 374 -107 callsubr
          35 1129 -81 callgsubr
          434 101 rmoveto
          -174 321 rlineto
          -250 hlineto
          235 -321 rlineto
          endchar
        </CharString>
        <CharString name="abrevegrave.1">
          -105 callgsubr
          -89 377 -81 callgsubr
          434 101 rmoveto
          -174 321 rlineto
          -250 hlineto
          235 -321 rlineto
          endchar
        </CharString>
        <CharString name="abrevehookabove">
          -83 374 -107 callsubr
          35 1130 -81 callgsubr
          198 400 rmoveto
          -19 -126 rlineto
          8 22 27 5 28 hhcurveto
          55 35 -27 -36 -43 -34 -28 -65 -30 hvcurveto
          65 -98 rlineto
          117 41 77 83 105 vvcurveto
          108 -97 52 -107 -49 -34 -6 -8 -21 vhcurveto
          endchar
        </CharString>
        <CharString name="abrevehookabove.1">
          -105 callgsubr
          -109 377 -81 callgsubr
          198 400 rmoveto
          -19 -126 rlineto
          8 22 27 5 28 hhcurveto
          55 35 -27 -36 -43 -34 -28 -65 -30 hvcurveto
          65 -98 rlineto
          117 41 77 83 105 vvcurveto
          108 -97 52 -107 -49 -34 -6 -8 -21 vhcurveto
          endchar
        </CharString>
        <CharString name="abrevetilde">
          -83 374 -107 callsubr
          35 1132 -81 callgsubr
          490 111 rmoveto
          124 94 109 133 9 hvcurveto
          -156 hlineto
          -63 -6 -25 -38 -40 -70 -20 123 -148 hhcurveto
          -120 -91 -101 -133 -11 hvcurveto
          156 hlineto
          53 6 26 33 43 78 11 -116 140 hhcurveto
          endchar
        </CharString>
        <CharString name="abrevetilde.1">
          -105 callgsubr
          -109 377 -81 callgsubr
          490 111 rmoveto
          124 94 109 133 9 hvcurveto
          -156 hlineto
          -63 -6 -25 -38 -40 -70 -20 123 -148 hhcurveto
          -120 -91 -101 -133 -11 hvcurveto
          156 hlineto
          53 6 26 33 43 78 11 -116 140 hhcurveto
          endchar
        </CharString>
        <CharString name="acaron">
          -83 374 -107 callsubr
          733 1250 -75 callgsubr
        </CharString>
        <CharString name="acaron.1">
          -105 callgsubr
          619 498 -75 callgsubr
        </CharString>
        <CharString name="acircumflex">
          -83 374 -107 callsubr
          -58 908 -72 callsubr
          endchar
        </CharString>
        <CharString name="acircumflex.1">
          -105 callgsubr
          -149 156 -72 callsubr
          endchar
        </CharString>
        <CharString name="acircumflexacute">
          -83 374 -107 callsubr
          -70 908 -23 callsubr
        </CharString>
        <CharString name="acircumflexacute.1">
          -105 callgsubr
          -181 156 -23 callsubr
        </CharString>
        <CharString name="acircumflexdotbelow">
          -83 374 -107 callsubr
          -58 908 -72 callsubr
          -339 -1819 -96 callsubr
        </CharString>
        <CharString name="acircumflexdotbelow.1">
          -105 callgsubr
          -169 156 -72 callsubr
          -345 -1819 -96 callsubr
        </CharString>
        <CharString name="acircumflexgrave">
          -83 374 -107 callsubr
          -69 908 -26 callgsubr
        </CharString>
        <CharString name="acircumflexgrave.1">
          -105 callgsubr
          -181 156 -26 callgsubr
        </CharString>
        <CharString name="acircumflexhookabove">
          -83 374 -107 callsubr
          -57 908 -53 callsubr
        </CharString>
        <CharString name="acircumflexhookabove.1">
          -105 callgsubr
          -181 156 -53 callsubr
        </CharString>
        <CharString name="acircumflextilde">
          -83 374 -107 callsubr
          -53 929 -55 callsubr
        </CharString>
        <CharString name="acircumflextilde.1">
          -105 callgsubr
          -166 156 -55 callsubr
        </CharString>
        <CharString name="acute">
          -229 398 1236 -73 callgsubr
        </CharString>
        <CharString name="acutecmb">
          2 1236 -73 callgsubr
        </CharString>
        <CharString name="acutecmb.short">
          36 1500 -71 callgsubr
        </CharString>
        <CharString name="acutedotaccentcmb">
          132 1224 57 callsubr
        </CharString>
        <CharString name="acutedotaccentcmb.short">
          153 1496 rmoveto
          247 hlineto
          382 320 rlineto
          -294 hlineto
          -620 -137 -80 callgsubr
        </CharString>
        <CharString name="acyrillic">
          -80 374 -107 callsubr
          endchar
        </CharString>
        <CharString name="acyrillic.1">
          29 818 637 43 callgsubr
          -266 443 82 callsubr
          142 -150 213 149 104 87 97 39 vhcurveto
          17 hlineto
          -32 -170 rlineto
          319 hlineto
          190 1068 90 callsubr
          -37 -209 rlineto
          -18 hlineto
          119 -19 -115 102 -164 hhcurveto
          endchar
        </CharString>
        <CharString name="adblgrave">
          -83 374 -107 callsubr
          245 908 -39 callgsubr
        </CharString>
        <CharString name="adblgrave.1">
          -105 callgsubr
          120 156 -39 callgsubr
        </CharString>
        <CharString name="adieresis">
          -83 374 -107 callsubr
          129 884 -100 callgsubr
        </CharString>
        <CharString name="adieresis.1">
          -105 callgsubr
          5 132 -100 callgsubr
        </CharString>
        <CharString name="adieresismacron">
          -83 374 -107 callsubr
          689 1260 -44 callsubr
        </CharString>
        <CharString name="adieresismacron.1">
          -105 callgsubr
          565 508 -44 callsubr
        </CharString>
        <CharString name="adotaccent">
          -83 374 -107 callsubr
          206 1058 -70 callsubr
        </CharString>
        <CharString name="adotaccent.1">
          -105 callgsubr
          69 306 -70 callsubr
        </CharString>
        <CharString name="adotbelow">
          -83 374 -107 callsubr
          -93 -568 -96 callsubr
        </CharString>
        <CharString name="adotbelow.1">
          -105 callgsubr
          -222 -1320 -96 callsubr
        </CharString>
        <CharString name="adotmacron">
          -83 374 -107 callsubr
          699 1260 rmoveto
          29 78 callsubr
          -28 -155 rlineto
          148 -245 -70 callsubr
        </CharString>
        <CharString name="adotmacron.1">
          -105 callgsubr
          575 508 rmoveto
          29 78 callsubr
          -28 -155 rlineto
          148 -245 -70 callsubr
        </CharString>
        <CharString name="ae">
          572 1215 -89 callsubr
          endchar
        </CharString>
        <CharString name="aeacute">
          572 1215 -89 callsubr
          -567 592 -73 callgsubr
        </CharString>
        <CharString name="aemacron">
          572 1215 -89 callsubr
          -103 602 -79 callsubr
        </CharString>
        <CharString name="agrave">
          -83 374 -107 callsubr
          465 908 -33 callsubr
        </CharString>
        <CharString name="agrave.1">
          23 821 636 rmoveto
          -21 -3 -35 -3 -20 vhcurveto
          -16 -87 rlineto
          -146 -26 -74 -88 -112 hhcurveto
          -104 -65 74 120 27 3 34 3 18 hvcurveto
          17 88 rlineto
          138 25 72 88 113 hhcurveto
          90 80 -66 -124 hvcurveto
          -267 443 rmoveto
          -234 -153 -170 -274 -51 hvcurveto
          -20 -103 rlineto
          -9 -45 -4 -55 -48 vvcurveto
          -249 137 -151 212 153 109 87 99 37 vhcurveto
          17 hlineto
          -31 -171 -27 callgsubr
          187 1068 rlineto
          -322 hlineto
          -37 -209 -7 callsubr
          118 -17 -116 103 -165 hhcurveto
          350 156 -33 callsubr
        </CharString>
        <CharString name="ahookabove">
          -83 374 -107 callsubr
          194 1119 -62 callsubr
        </CharString>
        <CharString name="ahookabove.1">
          -105 callgsubr
          26 377 -62 callsubr
        </CharString>
        <CharString name="ainvertedbreve">
          -83 374 -107 callsubr
          646 910 -54 callsubr
        </CharString>
        <CharString name="ainvertedbreve.1">
          -105 callgsubr
          534 158 -54 callsubr
        </CharString>
        <CharString name="alphagreek">
          -18 callgsubr
          endchar
        </CharString>
        <CharString name="alphatonosgreek">
          -18 callgsubr
          16 967 -23 callgsubr
        </CharString>
        <CharString name="amacron">
          -83 374 -107 callsubr
          650 918 -79 callsubr
        </CharString>
        <CharString name="amacron.1">
          -105 callgsubr
          526 166 -79 callsubr
        </CharString>
        <CharString name="ampersand">
          215 1113 725 rmoveto
          -13 -5 -50 -4 -15 vhcurveto
          -11 -80 -30 -76 -48 -71 -207 289 rcurveline
          16 8 23 11 11 7 rrcurveto
          206 104 88 107 147 vvcurveto
          170 -159 114 -236 -244 -169 -128 -183 -87 39 -88 90 -122 vhcurveto
          -27 -11 rlineto
          -244 -101 -116 -129 -171 vvcurveto
          -232 190 -153 289 132 127 33 65 117 vhcurveto
          54 -79 323 2 -167 233 106 111 66 121 20 125 rlinecurve
          3 15 16 112 1 15 rrcurveto
          -774 -533 rmoveto
          -125 -90 79 108 82 66 73 124 53 hvcurveto
          20 9 235 -343 rlineto
          -39 -63 -82 -22 -85 hhcurveto
          24 861 rmoveto
          74 59 54 80 77 57 -46 -63 -82 -55 -60 -121 -52 vhcurveto
          -2 -1 -12 -5 -2 -1 rrcurveto
          -58 83 -23 50 49 vvcurveto
          endchar
        </CharString>
        <CharString name="anoteleia">
          -627 177 878 69 callsubr
        </CharString>
        <CharString name="aogonek">
          -85 375 330 rmoveto
          71 57 54 107 vhcurveto
          169 hlineto
          -20 -110 rlineto
          -80 -16 -79 -54 -85 hhcurveto
          -79 -54 48 71 hvcurveto
          505 -699 rmoveto
          29 170 rlineto
          -4 -19 -37 -3 -21 hhcurveto
          -62 -44 30 53 4 hvcurveto
          6 98 137 56 77 25 101 572 rcurveline
          6 35 5 37 27 vvcurveto
          232 -167 125 -263 -298 -144 -160 -164 -22 vhcurveto
          299 hlineto
          54 14 50 40 80 hhcurveto
          95 48 -56 -64 -11 120 callgsubr
          -74 rlineto
          -242 hlineto
          -243 -172 -99 -196 -21 hvcurveto
          -2 -15 -1 -16 -14 vvcurveto
          -194 140 -110 177 150 90 77 75 37 vhcurveto
          16 hlineto
          -23 -128 -69 -46 -71 -50 -8 -107 rlinecurve
          -137 -8 117 -59 123 hhcurveto
          63 58 13 9 31 hvcurveto
          endchar
        </CharString>
        <CharString name="aogonek.1">
          23 821 637 rmoveto
          -22 -3 -36 -3 -18 vhcurveto
          -16 -87 rlineto
          -149 -27 -77 -85 -108 hhcurveto
          -104 -65 74 120 25 3 34 3 20 hvcurveto
          17 88 rlineto
          144 27 76 82 107 hhcurveto
          100 70 -77 -113 hvcurveto
          152 -1005 rmoveto
          29 170 rlineto
          -4 -17 -35 -4 -22 hhcurveto
          -62 -42 31 52 4 hvcurveto
          5 78 96 62 118 39 178 1012 rcurveline
          -322 hlineto
          -37 -209 -7 callsubr
          128 -19 -126 93 -153 hhcurveto
          -225 -161 -162 -282 -52 hvcurveto
          -20 -103 rlineto
          -9 -42 -4 -54 -52 vvcurveto
          -247 135 -153 214 138 120 74 112 41 vhcurveto
          17 hlineto
          -29 -161 rlineto
          39 hlineto
          -97 -52 -60 -56 -8 -97 rrcurveto
          -123 -8 98 -73 141 hhcurveto
          57 56 11 12 36 hvcurveto
          endchar
        </CharString>
        <CharString name="approxequal">
          21 900 582 -10 callgsubr
        </CharString>
        <CharString name="approxequal.uc">
          21 910 772 -10 callgsubr
        </CharString>
        <CharString name="aring">
          -83 374 -107 callsubr
          358 1015 -78 callsubr
        </CharString>
        <CharString name="aring.1">
          -105 callgsubr
          234 263 -78 callsubr
        </CharString>
        <CharString name="aringacute">
          -83 374 -107 callsubr
          358 1015 -13 callsubr
        </CharString>
        <CharString name="aringacute.1">
          -105 callgsubr
          234 263 -13 callsubr
        </CharString>
        <CharString name="aringbelow">
          -83 374 -107 callsubr
          59 -718 -78 callsubr
        </CharString>
        <CharString name="aringbelow.1">
          -105 callgsubr
          14 -1470 -78 callsubr
        </CharString>
        <CharString name="asciicircum">
          -235 998 796 rmoveto
          -209 569 rlineto
          -266 hlineto
          -411 -569 rlineto
          272 hlineto
          220 315 rlineto
          16 hlineto
          100 -315 rlineto
          endchar
        </CharString>
        <CharString name="asciitilde">
          -62 827 470 rmoveto
          189 111 173 233 5 hvcurveto
          -224 hlineto
          -71 -7 -25 -69 -78 -130 -50 188 -209 hhcurveto
          -201 -103 -170 -238 -2 hvcurveto
          223 hlineto
          73 7 31 74 71 119 71 -193 202 hhcurveto
          endchar
        </CharString>
        <CharString name="asterisk">
          -245 847 652 rmoveto
          133 173 -268 149 299 69 -81 203 -265 -160 91 295 -215 31 5 -309 -211 226 -133 -173 267 -148 -298 -69 81 -204 262 157 -87 -292 215 -30 -4 305 rlineto
          endchar
        </CharString>
        <CharString name="asterisk.uc">
          40 1192 455 rmoveto
          -364 198 423 122 -97 255 -378 -228 131 414 -273 29 -14 -431 -289 299 -178 -222 364 -201 -421 -116 97 -255 379 226 -133 -414 274 -29 17 425 285 -295 rlineto
          endchar
        </CharString>
        <CharString name="at">
          556 1054 287 -42 callsubr
        </CharString>
        <CharString name="at.uc">
          556 1119 364 -42 callsubr
        </CharString>
        <CharString name="atilde">
          -83 374 -107 callsubr
          457 886 -94 callsubr
          endchar
        </CharString>
        <CharString name="atilde.1">
          -105 callgsubr
          331 123 -94 callsubr
          endchar
        </CharString>
        <CharString name="austral">
          21 483 477 rmoveto
          61 155 rlineto
          208 hlineto
          6 -155 rlineto
          -41 590 rmoveto
          18 hlineto
          11 -290 rlineto
          -144 hlineto
          651 -157 rmoveto
          27 157 rlineto
          -233 hlineto
          -63 588 rlineto
          -404 hlineto
          -268 -588 rlineto
          -227 hlineto
          -27 -157 rlineto
          183 hlineto
          -63 -138 rlineto
          -145 hlineto
          -28 -157 rlineto
          102 hlineto
          -148 -325 rlineto
          334 hlineto
          129 325 rlineto
          342 hlineto
          13 -325 rlineto
          353 hlineto
          -35 325 rlineto
          106 hlineto
          28 157 rlineto
          -151 hlineto
          -14 138 rlineto
          endchar
        </CharString>
        <CharString name="b">
          -67 callgsubr
          endchar
        </CharString>
        <CharString name="backslash">
          -421 661 -308 92 callgsubr
        </CharString>
        <CharString name="backslash.uc">
          -421 684 -180 92 callgsubr
        </CharString>
        <CharString name="baht">
          21 734 585 rmoveto
          103 -14 59 -52 -98 vvcurveto
          -129 -95 -74 -134 -13 vhcurveto
          -285 -2 rmoveto
          68 386 rlineto
          121 hlineto
          -68 -386 rlineto
          47 964 rmoveto
          123 hlineto
          -61 -344 rlineto
          -122 hlineto
          345 335 rmoveto
          65 -17 39 -41 -76 vvcurveto
          -107 -64 -67 -98 -20 vhcurveto
          155 -110 rmoveto
          134 18 169 124 196 vvcurveto
          167 -110 131 -253 9 vhcurveto
          25 142 rlineto
          -164 hlineto
          -25 -142 rlineto
          -413 hlineto
          -241 -1365 rlineto
          413 hlineto
          -24 -136 rlineto
          164 hlineto
          24 136 rlineto
          322 1 240 136 275 vvcurveto
          171 -131 108 -132 13 vhcurveto
          endchar
        </CharString>
        <CharString name="bar">
          -421 411 -315 91 callsubr
        </CharString>
        <CharString name="bar.uc">
          -421 434 -187 91 callsubr
        </CharString>
        <CharString name="bdotaccent">
          -67 callgsubr
          -95 1261 -80 callgsubr
        </CharString>
        <CharString name="bdotbelow">
          -67 callgsubr
          -76 -681 -96 callsubr
        </CharString>
        <CharString name="becyrillic">
          -13 440 549 rmoveto
          138 27 64 87 119 hhcurveto
          111 56 -83 -107 -13 0 -25 -2 -19 hvcurveto
          -1 -10 -9 -46 -1 -9 rrcurveto
          -133 -24 -63 -100 -118 hhcurveto
          -117 -58 83 111 26 2 20 3 20 hvcurveto
          1 9 8 42 2 9 rrcurveto
          311 455 rmoveto
          -166 -96 -77 -109 -60 hvcurveto
          -15 hlineto
          53 206 86 112 243 14 124 7 rcurveline
          207 11 88 115 34 154 rrcurveto
          -247 hlineto
          -8 -22 -32 -19 -71 -4 -104 -6 rcurveline
          -415 -22 -162 -223 -78 -443 -14 -78 rcurveline
          -13 -66 -3 -54 -49 vvcurveto
          -292 2 189 -175 300 hhcurveto
          301 189 183 252 44 hvcurveto
          3 13 10 54 1 14 rrcurveto
          4 28 2 30 26 vvcurveto
          254 -156 166 -240 vhcurveto
          endchar
        </CharString>
        <CharString name="betagreek">
          36 -9 -355 rmoveto
          319 hlineto
          95 539 rlineto
          13 hlineto
          -125 38 110 -75 173 hhcurveto
          271 164 201 258 159 -89 123 -140 36 hvcurveto
          3 16 rlineto
          142 53 93 125 180 vvcurveto
          217 -179 125 -252 -325 -141 -159 -351 -61 vhcurveto
          416 -727 rmoveto
          -116 -72 69 114 29 2 22 12 68 hvcurveto
          85 471 rlineto
          157 28 58 65 104 hhcurveto
          101 52 -54 -95 -132 -68 -68 -130 hvcurveto
          -66 hlineto
          -40 -231 rlineto
          49 hlineto
          137 76 -71 -115 -135 -76 -94 -136 hvcurveto
          endchar
        </CharString>
        <CharString name="bitcoin">
          21 498 812 rmoveto
          54 304 rlineto
          180 hlineto
          106 47 -49 -72 -113 -80 -70 -154 hvcurveto
          -252 -560 rmoveto
          61 342 rlineto
          197 hlineto
          122 64 -49 -93 -125 -89 -75 -175 hvcurveto
          336 466 rmoveto
          161 21 126 144 152 vvcurveto
          157 -104 100 -179 20 vhcurveto
          37 204 rlineto
          -148 hlineto
          -36 -201 rlineto
          -136 hlineto
          37 201 rlineto
          -147 hlineto
          -36 -201 rlineto
          -188 hlineto
          -225 -1266 rlineto
          190 hlineto
          -36 -199 rlineto
          147 hlineto
          36 199 rlineto
          135 hlineto
          -36 -199 rlineto
          146 hlineto
          37 201 rlineto
          291 19 177 153 217 vvcurveto
          137 -109 113 -142 15 vhcurveto
          endchar
        </CharString>
        <CharString name="blinebelow">
          -67 callgsubr
          368 -792 -79 callsubr
        </CharString>
        <CharString name="braceleft">
          -421 333 584 -3 callsubr
        </CharString>
        <CharString name="braceleft.uc">
          -421 354 705 -3 callsubr
        </CharString>
        <CharString name="braceright">
          -421 516 553 -2 callgsubr
        </CharString>
        <CharString name="braceright.uc">
          -421 538 674 -2 callgsubr
        </CharString>
        <CharString name="bracketleft">
          -421 330 1437 62 callgsubr
        </CharString>
        <CharString name="bracketleft.uc">
          -421 352 1558 62 callgsubr
        </CharString>
        <CharString name="bracketright">
          -421 228 1437 62 callsubr
        </CharString>
        <CharString name="bracketright.uc">
          -421 250 1558 62 callsubr
        </CharString>
        <CharString name="breve">
          -229 388 1536 -77 callsubr
          endchar
        </CharString>
        <CharString name="breveacutecmb">
          -149 1457 -81 callgsubr
          217 101 rmoveto
          196 hlineto
          326 321 rlineto
          -252 hlineto
          endchar
        </CharString>
        <CharString name="breveacutecmb.short">
          -98 1735 -4 callgsubr
          38 16 rmoveto
          191 hlineto
          227 194 rlineto
          -242 hlineto
          endchar
        </CharString>
        <CharString name="brevebelowcmb">
          -433 -112 10 callgsubr
        </CharString>
        <CharString name="brevecmb">
          -132 1539 -77 callsubr
          endchar
        </CharString>
        <CharString name="brevecmb.short">
          -111 1776 -68 callgsubr
          endchar
        </CharString>
        <CharString name="brevecyrillic">
          -223 364 1547 -85 callgsubr
        </CharString>
        <CharString name="brevecyrillic.short">
          -111 1771 -82 callgsubr
          endchar
        </CharString>
        <CharString name="brevegravecmb">
          -149 1457 -81 callgsubr
          434 101 rmoveto
          -174 321 rlineto
          -250 hlineto
          235 -321 rlineto
          endchar
        </CharString>
        <CharString name="brevegravecmb.short">
          -98 1735 -4 callgsubr
          257 16 rmoveto
          -143 194 rlineto
          -240 hlineto
          188 -194 rlineto
          endchar
        </CharString>
        <CharString name="brevehookabovecmb">
          -149 1457 -81 callgsubr
          198 400 rmoveto
          -19 -126 rlineto
          8 22 27 5 28 hhcurveto
          55 35 -27 -36 -43 -34 -28 -65 -30 hvcurveto
          65 -98 rlineto
          117 41 77 83 105 vvcurveto
          108 -97 52 -107 -49 -34 -6 -8 -21 vhcurveto
          endchar
        </CharString>
        <CharString name="brevehookabovecmb.short">
          -86 1700 11 callgsubr
        </CharString>
        <CharString name="brevetildecmb">
          -149 1457 -81 callgsubr
          490 111 rmoveto
          124 94 109 133 9 hvcurveto
          -156 hlineto
          -63 -6 -25 -38 -40 -70 -20 123 -148 hhcurveto
          -120 -91 -101 -133 -11 hvcurveto
          156 hlineto
          53 6 26 33 43 78 11 -116 140 hhcurveto
          endchar
        </CharString>
        <CharString name="brevetildecmb.short">
          -79 1694 7 callgsubr
        </CharString>
        <CharString name="brokenbar">
          -421 604 779 rmoveto
          117 658 rlineto
          -285 hlineto
          -117 -658 rlineto
          92 -1094 rmoveto
          119 671 rlineto
          -285 hlineto
          -119 -671 rlineto
          endchar
        </CharString>
        <CharString name="bullet">
          -245 509 173 57 callgsubr
        </CharString>
        <CharString name="bullet.uc">
          -245 533 309 57 callgsubr
        </CharString>
        <CharString name="c">
          -107 88 409 -87 callsubr
          endchar
        </CharString>
        <CharString name="cacute">
          -107 88 409 -87 callsubr
          481 827 -73 callgsubr
        </CharString>
        <CharString name="caron">
          -229 1064 1573 -75 callgsubr
        </CharString>
        <CharString name="caroncmb">
          559 1578 -75 callgsubr
        </CharString>
        <CharString name="caroncmb.short">
          603 1736 -82 callsubr
          endchar
        </CharString>
        <CharString name="carondotaccentcmb">
          -168 1572 39 callsubr
        </CharString>
        <CharString name="carondotaccentcmb.short">
          596 1703 41 callsubr
        </CharString>
        <CharString name="ccaron">
          -107 88 409 -87 callsubr
          1038 1169 -75 callgsubr
        </CharString>
        <CharString name="ccedilla">
          -107 447 -63 callgsubr
          endchar
        </CharString>
        <CharString name="ccedillaacute">
          -107 447 -63 callgsubr
          121 1717 -73 callgsubr
        </CharString>
        <CharString name="ccircumflex">
          -107 88 409 -87 callsubr
          250 827 -72 callsubr
          endchar
        </CharString>
        <CharString name="cdotaccent">
          -107 88 409 -87 callsubr
          505 977 -70 callsubr
        </CharString>
        <CharString name="cedi">
          21 452 803 rmoveto
          36 197 88 110 125 23 -155 -875 rcurveline
          -85 40 -49 90 127 vvcurveto
          36 6 63 6 42 vhcurveto
          845 201 rmoveto
          5 18 7 42 26 vvcurveto
          207 -152 160 -224 50 vhcurveto
          26 147 rlineto
          -164 hlineto
          -23 -131 -322 -3 -226 -192 -59 -339 rlinecurve
          -34 -185 rlineto
          -5 -28 -4 -58 -35 vvcurveto
          -299 147 -189 260 -47 vhcurveto
          -24 -137 rlineto
          164 hlineto
          22 125 294 10 212 163 32 258 rlinecurve
          1 5 2 22 1 3 rrcurveto
          -288 hlineto
          -21 -125 -77 -73 -112 -15 155 878 rcurveline
          69 -33 43 -67 4 -91 rrcurveto
          -20 -2 -28 -2 -19 vhcurveto
          endchar
        </CharString>
        <CharString name="cedilla">
          -229 278 -160 -31 callgsubr
        </CharString>
        <CharString name="cedillacmb">
          -209 -160 -31 callgsubr
        </CharString>
        <CharString name="cent">
          21 169 552 rmoveto
          -201 113 -147 173 -51 vhcurveto
          -41 -232 rlineto
          256 hlineto
          39 217 rlineto
          0 vlineto
          201 13 179 127 28 210 rrcurveto
          -300 hlineto
          -64 -12 -56 -46 -93 hhcurveto
          -122 -52 80 118 22 2 32 6 37 hvcurveto
          18 106 rlineto
          142 24 79 69 99 hhcurveto
          106 53 -76 -75 -2 0 -9 -1 -5 hvcurveto
          296 hlineto
          3 9 1 13 18 vvcurveto
          166 -109 132 -162 48 vhcurveto
          44 238 rlineto
          -258 hlineto
          -39 -217 rlineto
          0 vlineto
          -213 -21 -185 -133 -45 -264 -20 -113 rcurveline
          -8 -47 -4 -53 -41 vvcurveto
          endchar
        </CharString>
        <CharString name="checyrillic">
          -8 997 hmoveto
          -26 callsubr
        </CharString>
        <CharString name="chigreek">
          -5 562 103 rmoveto
          92 -281 rlineto
          -128 43 68 -56 149 hhcurveto
          45 46 6 7 27 hvcurveto
          41 228 rlineto
          -3 -15 -14 -2 -22 hhcurveto
          -51 -32 25 93 -34 hvcurveto
          -126 358 539 718 rlineto
          -323 hlineto
          -318 -441 -7 callsubr
          -84 258 rlineto
          141 -46 -60 50 -144 hhcurveto
          -56 -55 -10 -6 -24 hvcurveto
          -41 -228 rlineto
          4 13 23 5 17 hhcurveto
          56 26 -19 -70 25 hvcurveto
          133 -374 -550 -733 rlineto
          322 hlineto
          332 458 rlineto
          endchar
        </CharString>
        <CharString name="circumflex">
          -229 270 1236 -72 callsubr
          endchar
        </CharString>
        <CharString name="circumflexacutecmb">
          -241 1236 -23 callsubr
        </CharString>
        <CharString name="circumflexacutecmb.short">
          30 callgsubr
          361 -67 rmoveto
          198 hlineto
          286 248 rlineto
          -243 hlineto
          endchar
        </CharString>
        <CharString name="circumflexbelowcmb">
          -532 -416 -57 callgsubr
          endchar
        </CharString>
        <CharString name="circumflexcmb">
          -229 1236 -72 callsubr
          endchar
        </CharString>
        <CharString name="circumflexcmb.short">
          -194 68 callgsubr
          endchar
        </CharString>
        <CharString name="circumflexgravecmb">
          -241 1236 -26 callgsubr
        </CharString>
        <CharString name="circumflexgravecmb.short">
          30 callgsubr
          638 -68 rmoveto
          -177 249 rlineto
          -223 hlineto
          203 -249 rlineto
          endchar
        </CharString>
        <CharString name="circumflexhookabovecmb">
          -241 1236 -53 callsubr
        </CharString>
        <CharString name="circumflexhookabovecmb.short">
          30 callgsubr
          285 91 rmoveto
          3 12 14 2 26 hhcurveto
          53 32 -23 -39 -26 -17 -22 -30 -15 hvcurveto
          72 -82 rlineto
          62 28 60 60 78 vvcurveto
          108 -82 39 -115 -33 -33 -5 -5 -15 vhcurveto
          endchar
        </CharString>
        <CharString name="circumflextildecmb">
          -226 1236 -55 callsubr
        </CharString>
        <CharString name="circumflextildecmb.short">
          -163 1496 -36 callsubr
        </CharString>
        <CharString name="colon">
          -619 172 812 rmoveto
          117 callgsubr
          117 -87 74 -111 -108 -87 -72 -119 vhcurveto
          -113 -645 rmoveto
          -117 88 -71 108 93 callsubr
          116 -86 75 -111 -109 -87 -73 -118 vhcurveto
          endchar
        </CharString>
        <CharString name="colon.uc">
          -618 204 995 rmoveto
          -118 87 -70 108 110 87 70 118 116 -86 74 -111 -109 -86 -72 -118 vhcurveto
          -110 -646 47 callsubr
          117 -86 74 -111 -109 -86 -72 -119 vhcurveto
          endchar
        </CharString>
        <CharString name="coloncurrency">
          21 941 1127 rmoveto
          0 1 0 0 53 48 -4 -6 42 vhcurveto
          -377 -848 -46 17 -40 22 -33 29 rlinecurve
          -71 440 rmoveto
          28 160 92 111 131 49 -270 -608 rcurveline
          -6 26 -3 26 29 vvcurveto
          28 4 36 5 31 vhcurveto
          910 824 rmoveto
          -158 hlineto
          -57 -127 -38 9 -48 8 -53 5 rlinecurve
          47 105 rlineto
          -159 hlineto
          -45 -101 -357 -14 -266 -209 -69 -352 rlinecurve
          -23 -119 rlineto
          -10 -45 -4 -51 -48 vvcurveto
          -165 66 -138 112 -99 vhcurveto
          -125 -281 rlineto
          158 hlineto
          88 198 39 -20 42 -17 45 -14 rlinecurve
          -65 -147 rlineto
          159 hlineto
          52 116 rlineto
          -5 41 43 -3 44 hhcurveto
          53 56 3 4 40 hvcurveto
          45 260 rlineto
          -3 -34 -51 -3 -53 hhcurveto
          -24 -24 1 2 -23 hvcurveto
          endchar
        </CharString>
        <CharString name="comma">
          -652 183 -377 rmoveto
          297 627 90 callsubr
          -232 -627 rlineto
          endchar
        </CharString>
        <CharString name="commaaccent">
          -229 433 -463 -31 callsubr
        </CharString>
        <CharString name="commabelowcmb">
          -82 -461 -31 callsubr
        </CharString>
        <CharString name="copyright">
          478 874 -68 rmoveto
          376 295 238 364 55 hvcurveto
          15 103 rlineto
          7 38 2 39 33 vvcurveto
          379 -287 310 -424 -372 -296 -239 -340 -51 vhcurveto
          -15 -103 rlineto
          -7 -43 -3 -43 -42 vvcurveto
          -392 282 -302 423 vhcurveto
          -569 691 rmoveto
          35 2 37 6 35 vhcurveto
          16 104 rlineto
          268 39 232 201 308 hhcurveto
          341 240 -248 -311 -29 -3 -27 -4 -30 hvcurveto
          -16 -104 rlineto
          -297 -44 -240 -192 -307 hhcurveto
          -339 -231 236 322 hvcurveto
          241 -15 rmoveto
          -198 120 -120 201 186 115 101 158 25 vhcurveto
          -193 hlineto
          -56 -11 -43 -37 -68 hhcurveto
          -91 -41 64 85 18 2 26 4 24 hvcurveto
          12 65 rlineto
          116 21 57 57 77 hhcurveto
          75 44 -55 -57 -7 -1 -15 -1 -9 hvcurveto
          192 hlineto
          6 15 1 26 12 vvcurveto
          126 -115 124 -205 -194 -122 -111 -184 -31 vhcurveto
          -16 -91 rlineto
          -4 -31 -2 -22 -24 vvcurveto
          endchar
        </CharString>
        <CharString name="cruzeiro">
          21 521 777 rmoveto
          224 39 162 126 222 hhcurveto
          117 91 -19 -21 57 hvcurveto
          45 257 rlineto
          24 -60 -122 21 -131 hhcurveto
          -377 -284 -211 -365 -72 hvcurveto
          -23 -119 rlineto
          -9 -45 -5 -51 -48 vvcurveto
          -349 295 -226 404 54 56 3 4 39 vhcurveto
          45 260 rlineto
          -3 -33 -52 -3 -52 hhcurveto
          -40 -37 3 5 -35 hvcurveto
          37 205 rlineto
          135 24 64 69 106 hhcurveto
          31 28 -3 -7 21 hvcurveto
          38 210 rlineto
          8 -19 -15 2 -29 hhcurveto
          -90 -69 -51 -100 -37 hvcurveto
          -13 hlineto
          25 138 rlineto
          -204 hlineto
          -94 -534 rlineto
          -81 56 -45 86 112 vvcurveto
          28 3 36 6 31 vhcurveto
          endchar
        </CharString>
        <CharString name="currency">
          21 451 648 rmoveto
          114 91 92 114 112 92 -92 -114 -115 -92 -92 -112 -114 -91 92 115 vhcurveto
          544 -557 rmoveto
          161 153 -137 158 rlineto
          48 69 31 83 91 vvcurveto
          74 -19 74 -33 62 vhcurveto
          178 152 -150 164 -177 -152 rlineto
          49 -68 -80 27 -89 hhcurveto
          -75 -74 -19 -34 -62 hvcurveto
          -141 164 -162 -153 143 -164 rlineto
          -48 -69 -27 -80 -89 vvcurveto
          -76 18 -74 34 -63 vhcurveto
          -172 -148 150 -164 172 149 rlineto
          -47 68 79 -27 90 hhcurveto
          72 72 17 32 59 hvcurveto
          endchar
        </CharString>
        <CharString name="d">
          23 -93 callsubr
          endchar
        </CharString>
        <CharString name="dagger">
          -245 938 836 rmoveto
          45 262 -239 -5 54 272 rlineto
          -290 hlineto
          -42 -272 -236 5 -46 -262 239 5 -101 -530 rlineto
          290 hlineto
          88 530 rlineto
          endchar
        </CharString>
        <CharString name="daggerdbl">
          -245 868 436 rmoveto
          42 242 -241 -5 30 135 20 141 239 -5 41 243 -241 -6 40 184 rlineto
          -290 hlineto
          -27 -184 -237 6 -41 -243 238 5 -31 -137 -18 -139 -237 5 -42 -242 239 4 -39 -183 rlineto
          290 hlineto
          26 183 rlineto
          endchar
        </CharString>
        <CharString name="dblgrave">
          -229 691 1236 -39 callgsubr
        </CharString>
        <CharString name="dblgravecmb">
          60 1236 -39 callgsubr
        </CharString>
        <CharString name="dblgravecmb.short">
          102 1500 rmoveto
          -25 callsubr
        </CharString>
        <CharString name="dcaron">
          302 1446 1437 rmoveto
          -94 -491 rlineto
          208 hlineto
          149 491 rlineto
          -1155 -357 -94 callgsubr
          endchar
        </CharString>
        <CharString name="dcircumflexbelow">
          -67 callsubr
          -717 -1053 -57 callgsubr
          endchar
        </CharString>
        <CharString name="dcommaaccent">
          -67 callsubr
          -267 -1098 -31 callsubr
        </CharString>
        <CharString name="dcroat">
          37 821 637 rmoveto
          -21 -3 -35 -3 -20 vhcurveto
          -16 -87 rlineto
          -145 -26 -74 -89 -112 hhcurveto
          -104 -65 74 120 24 3 34 3 21 hvcurveto
          17 88 rlineto
          138 25 72 88 113 hhcurveto
          90 80 -66 -124 hvcurveto
          -90 -466 rmoveto
          17 hlineto
          -31 -171 -27 callgsubr
          201 1138 rlineto
          128 hlineto
          28 173 rlineto
          -140 hlineto
          23 126 rlineto
          -293 hlineto
          -23 -126 rlineto
          -212 hlineto
          -28 -173 rlineto
          196 hlineto
          -49 -279 -7 callsubr
          118 -18 -117 103 -166 hhcurveto
          -234 -153 -170 -274 -51 hvcurveto
          -20 -103 rlineto
          -9 -44 -4 -55 -49 vvcurveto
          -249 138 -147 213 153 107 83 99 37 vhcurveto
          endchar
        </CharString>
        <CharString name="ddotaccent">
          -67 callsubr
          213 1065 -80 callgsubr
        </CharString>
        <CharString name="ddotbelow">
          -67 callsubr
          -450 -877 -96 callsubr
        </CharString>
        <CharString name="decyrillic">
          85 13 callsubr
        </CharString>
        <CharString name="decyrillic.1">
          -42 1096 452 rmoveto
          26 145 rlineto
          438 76 -115 425 -506 hhcurveto
          -84 -87 -13 -24 -69 hvcurveto
          -49 -261 rlineto
          32 87 71 11 84 hhcurveto
          220 82 -146 -163 5 hvcurveto
          -8 1 rlineto
          51 -45 -83 56 -147 hhcurveto
          -223 -158 -138 -226 -55 hvcurveto
          -6 -21 -12 -62 -5 -27 rrcurveto
          -6 -34 -4 -33 -32 vvcurveto
          -267 180 -181 299 319 161 177 292 52 vhcurveto
          -465 343 111 callgsubr
          -11 -61 rlineto
          -133 -25 -63 -97 -119 hhcurveto
          -115 -57 87 111 24 2 34 5 27 hvcurveto
          10 56 rlineto
          130 24 64 101 123 hhcurveto
          endchar
        </CharString>
        <CharString name="degree">
          -522 466 787 rmoveto
          173 130 128 170 170 -129 127 -174 -175 -129 -127 -170 -170 130 -128 174 hvcurveto
          170 vmoveto
          -67 -57 58 70 69 56 57 68 68 55 -55 -71 -71 -55 -57 -68 hvcurveto
          endchar
        </CharString>
        <CharString name="deltagreek">
          -78 542 -20 rmoveto
          269 195 159 266 56 hvcurveto
          10 47 6 47 45 vvcurveto
          185 -58 110 -225 180 vhcurveto
          -89 66 -19 25 38 vvcurveto
          42 35 30 64 84 116 -36 -52 84 vhcurveto
          69 213 rlineto
          66 -82 -164 52 -167 hhcurveto
          -228 -132 -115 -165 -82 46 -73 91 -63 hvcurveto
          -2 -14 rlineto
          -1 hlineto
          -220 -23 -147 -165 -43 -218 rrcurveto
          -8 -43 -5 -39 -37 vvcurveto
          -304 207 -142 258 vhcurveto
          5 228 rmoveto
          -89 -69 56 125 28 5 49 9 53 hvcurveto
          174 32 74 69 102 hhcurveto
          95 68 -54 -131 -25 -7 -58 -6 -36 hvcurveto
          -181 -33 -73 -69 -108 hhcurveto
          endchar
        </CharString>
        <CharString name="dieresis">
          -229 450 1237 -100 callgsubr
        </CharString>
        <CharString name="dieresisacutecmb">
          -201 1332 0 callsubr
        </CharString>
        <CharString name="dieresisacutecmb.short">
          87 1754 -19 callgsubr
          endchar
        </CharString>
        <CharString name="dieresisbelowcmb">
          -332 -380 -100 callgsubr
        </CharString>
        <CharString name="dieresiscaroncmb">
          80 19 callgsubr
        </CharString>
        <CharString name="dieresiscaroncmb.short">
          625 1945 22 callsubr
        </CharString>
        <CharString name="dieresiscmb">
          -55 1212 -100 callgsubr
        </CharString>
        <CharString name="dieresiscmb.short">
          -120 14 callsubr
          endchar
        </CharString>
        <CharString name="dieresisgravecmb">
          -209 28 callgsubr
        </CharString>
        <CharString name="dieresisgravecmb.short">
          -92 1945 rmoveto
          233 -191 rlineto
          207 hlineto
          -185 191 rlineto
          -283 -366 -101 callgsubr
          endchar
        </CharString>
        <CharString name="dieresismacroncmb">
          505 1588 -44 callsubr
        </CharString>
        <CharString name="dieresismacroncmb.short">
          572 1920 -20 callsubr
        </CharString>
        <CharString name="dieresistonosgreek">
          39 308 1337 -36 callgsubr
        </CharString>
        <CharString name="divide">
          21 504 996 25 callgsubr
        </CharString>
        <CharString name="divide.uc">
          21 524 1142 25 callgsubr
        </CharString>
        <CharString name="djecyrillic">
          51 745 2 rmoveto
          -85 -15 -54 -45 -83 hhcurveto
          -30 -24 -34 callgsubr
          101 570 -50 callsubr
          44 244 rlineto
          173 hlineto
          29 172 rlineto
          -171 hlineto
          20 114 55 callgsubr
          -20 -114 rlineto
          -103 hlineto
          -29 -172 rlineto
          101 hlineto
          -202 -1151 rlineto
          -17 callgsubr
          -35 -5 -45 -4 -24 hvcurveto
          endchar
        </CharString>
        <CharString name="dlinebelow">
          -67 callsubr
          -6 -988 -79 callsubr
        </CharString>
        <CharString name="dollar">
          21 411 -128 rmoveto
          128 hlineto
          28 111 rlineto
          -1 14 13 0 15 hhcurveto
          305 241 148 279 1 hvcurveto
          1 222 -154 88 -172 61 -4 1 -59 20 -2 1 85 352 rcurveline
          66 -25 50 -55 3 -73 1 -8 0 -7 -1 -4 rrcurveto
          243 hlineto
          1 5 1 16 11 vvcurveto
          174 -125 129 -187 47 vhcurveto
          36 148 rlineto
          -128 hlineto
          -32 -128 rlineto
          1 -12 -20 0 -13 hhcurveto
          -281 -234 -146 -264 -210 151 -106 162 -58 hvcurveto
          4 -2 43 -14 5 -2 -89 -372 rcurveline
          -88 29 -55 68 75 vvcurveto
          7 1 5 1 5 vhcurveto
          -255 hlineto
          -2 -12 -1 -14 -14 vvcurveto
          -185 142 -130 205 -45 vhcurveto
          434 371 rmoveto
          -119 -117 -64 -136 vhcurveto
          -7 hlineto
          85 357 rlineto
          -1 2 1 -1 2 hhcurveto
          99 -35 71 -45 -92 vvcurveto
          -375 632 rmoveto
          113 109 62 113 vhcurveto
          4 hlineto
          -80 -335 -2 1 -3 0 -2 1 rlinecurve
          -90 33 -49 50 75 vvcurveto
          endchar
        </CharString>
        <CharString name="dotaccent">
          -229 495 1454 rmoveto
          -112 82 -66 103 102 82 66 112 109 -81 70 -103 -103 -82 -68 -111 vhcurveto
          endchar
        </CharString>
        <CharString name="dotaccentcmb">
          26 1386 -70 callsubr
        </CharString>
        <CharString name="dotaccentcmb.short">
          66 1630 -80 callgsubr
        </CharString>
        <CharString name="dotbelowcmb">
          -265 37 callsubr
          endchar
        </CharString>
        <CharString name="dotlessi">
          -24 callgsubr
          endchar
        </CharString>
        <CharString name="dotlessj">
          -561 604 1068 rmoveto
          51 callsubr
          endchar
        </CharString>
        <CharString name="dotmacroncmb">
          515 1588 rmoveto
          29 78 callsubr
          -28 -155 rlineto
          148 -245 -70 callsubr
        </CharString>
        <CharString name="dotmacroncmb.short">
          56 1566 25 callsubr
        </CharString>
        <CharString name="dzecyrillic">
          -118 174 -100 callsubr
          endchar
        </CharString>
        <CharString name="dzhecyrillic">
          38 415 hmoveto
          -50 -285 rlineto
          277 hlineto
          50 285 rlineto
          351 60 callsubr
          -321 hlineto
          -147 -830 rlineto
          -336 77 callgsubr
          endchar
        </CharString>
        <CharString name="e">
          -73 558 -20 -1 callsubr
        </CharString>
        <CharString name="eacute">
          -73 558 -20 -106 callsubr
          -212 592 -73 callgsubr
        </CharString>
        <CharString name="ebreve">
          -73 558 -20 -106 callsubr
          -346 895 -77 callsubr
          endchar
        </CharString>
        <CharString name="ecaron">
          -73 558 -20 -106 callsubr
          345 934 -75 callgsubr
        </CharString>
        <CharString name="ecedilla">
          -28 callsubr
          endchar
        </CharString>
        <CharString name="ecedillabreve">
          -28 callsubr
          -4 2020 -77 callsubr
          endchar
        </CharString>
        <CharString name="ecircumflex">
          -73 558 -20 -106 callsubr
          -443 592 -72 callsubr
          endchar
        </CharString>
        <CharString name="ecircumflexacute">
          -73 558 -20 -106 callsubr
          -455 592 -23 callsubr
        </CharString>
        <CharString name="ecircumflexbelow">
          -73 558 -20 -106 callsubr
          -729 -1060 -57 callgsubr
          endchar
        </CharString>
        <CharString name="ecircumflexdotbelow">
          -73 558 -20 -106 callsubr
          -443 592 -72 callsubr
          -328 -1819 -96 callsubr
        </CharString>
        <CharString name="ecircumflexgrave">
          -73 558 -20 -106 callsubr
          -455 592 -26 callgsubr
        </CharString>
        <CharString name="ecircumflexhookabove">
          -73 558 -20 -106 callsubr
          -455 592 -53 callsubr
        </CharString>
        <CharString name="ecircumflextilde">
          -73 558 -20 -106 callsubr
          -440 592 -55 callsubr
        </CharString>
        <CharString name="ecyrillic">
          -110 -5 callgsubr
          endchar
        </CharString>
        <CharString name="edblgrave">
          -73 558 -20 -106 callsubr
          -154 592 -39 callgsubr
        </CharString>
        <CharString name="edieresis">
          -73 558 -20 -106 callsubr
          -269 568 -100 callgsubr
        </CharString>
        <CharString name="edotaccent">
          -73 558 -20 -106 callsubr
          -188 742 -70 callsubr
        </CharString>
        <CharString name="edotbelow">
          -73 558 -20 -106 callsubr
          -462 -884 -96 callsubr
        </CharString>
        <CharString name="efcyrillic">
          333 493 -355 rmoveto
          292 hlineto
          59 331 rlineto
          5 5 13 -5 9 hhcurveto
          338 4 208 142 61 319 11 57 rcurveline
          8 41 4 40 38 vvcurveto
          259 -179 176 -284 31 vhcurveto
          46 259 rlineto
          -293 hlineto
          -44 -254 rlineto
          -6 -8 0 -5 hhcurveto
          -336 -1 -219 -143 -61 -321 -11 -57 rcurveline
          -8 -41 -4 -40 -39 vvcurveto
          1 -258 179 -176 283 -30 rrcurveto
          48 231 rmoveto
          -148 25 -54 79 116 vvcurveto
          36 4 40 8 41 vhcurveto
          6 32 32 182 97 72 135 13 rlinecurve
          10 12 1 11 hhcurveto
          277 -2 rmoveto
          148 -25 53 -79 1 -116 rrcurveto
          -36 -5 -39 -7 -41 vhcurveto
          -6 -33 -32 -184 -98 -72 -138 -11 rlinecurve
          -1 -9 -10 0 -10 hhcurveto
          endchar
        </CharString>
        <CharString name="egrave">
          -73 558 -20 -106 callsubr
          66 592 -33 callsubr
        </CharString>
        <CharString name="ehookabove">
          -73 558 -20 -106 callsubr
          -199 803 -62 callsubr
        </CharString>
        <CharString name="eight">
          83 950 -13 callgsubr
        </CharString>
        <CharString name="eight.dnum">
          -321 634 442 -59 callgsubr
        </CharString>
        <CharString name="eight.numr">
          -321 719 923 -59 callgsubr
        </CharString>
        <CharString name="eight.subs">
          -321 565 52 -59 callgsubr
        </CharString>
        <CharString name="eight.sups">
          -337 789 1314 -59 callgsubr
        </CharString>
        <CharString name="eight.tnum">
          21 919 -13 callgsubr
        </CharString>
        <CharString name="einvertedbreve">
          -73 558 -20 -106 callsubr
          260 594 -54 callsubr
        </CharString>
        <CharString name="elcyrillic">
          0 275 682 -37 callgsubr
        </CharString>
        <CharString name="ellipsis">
          590 1259 167 47 callsubr
          116 -86 75 -111 -108 -87 -73 -118 vhcurveto
          -596 hmoveto
          117 callgsubr
          116 -87 75 -111 -108 -87 -73 -118 vhcurveto
          -596 hmoveto
          -117 87 -71 109 93 callsubr
          116 -87 75 -110 -109 -87 -73 -118 vhcurveto
          endchar
        </CharString>
        <CharString name="emacron">
          -73 558 -20 -106 callsubr
          252 602 -79 callsubr
        </CharString>
        <CharString name="emacronacute">
          -73 558 -20 -106 callsubr
          -166 886 35 callgsubr
        </CharString>
        <CharString name="emacrongrave">
          -73 558 -20 -106 callsubr
          -138 886 36 callsubr
        </CharString>
        <CharString name="emcyrillic">
          321 467 27 callsubr
        </CharString>
        <CharString name="emdash">
          819 2043 417 105 callsubr
          -2048 hlineto
          -49 116 callgsubr
        </CharString>
        <CharString name="emdash.uc">
          820 1957 548 rmoveto
          50 287 rlineto
          -1831 hlineto
          -49 -287 rlineto
          endchar
        </CharString>
        <CharString name="emquad">
          819 endchar
        </CharString>
        <CharString name="emspace">
          769 endchar
        </CharString>
        <CharString name="encyrillic">
          48 732 hmoveto
          -34 callsubr
        </CharString>
        <CharString name="endash">
          23 1247 417 105 callsubr
          -1252 hlineto
          -50 116 callgsubr
        </CharString>
        <CharString name="endash.uc">
          24 1162 547 105 callsubr
          -1035 hlineto
          -49 116 callgsubr
        </CharString>
        <CharString name="enquad">
          -205 endchar
        </CharString>
        <CharString name="enspace">
          26 endchar
        </CharString>
</ttFont>
